<?xml version="1.0" encoding="UTF-8" standalone="no"?>
<svg 
 	 width = "695.000000" 
 	 height = "841.000000" 
xmlns:dc="http://purl.org/dc/elements/1.1/"
xmlns:cc="http://web.resource.org/cc/"
xmlns:rdf="http://www.w3.org/1999/02/22-rdf-syntax-ns#"
 xmlns:svg="http://www.w3.org/2000/svg"
 xmlns="http://www.w3.org/2000/svg" 
 xmlns:sodipodi="http://inkscape.sourceforge.net/DTD/sodipodi-0.dtd"
 xmlns:inkscape="http://www.inkscape.org/namespaces/inkscape"
 >
<g inkscape:label="Background" inkscape:groupmode="layer" id="Background">
<path  style="fill:#ffffff;fill-opacity:1.000000;stroke:#ffffff;stroke-width:1.000000px;stroke-opacity:1.000000;stroke-linecap:butt;stroke-linejoin:miter;"
 d="M 95.080063,343.966370 C 94.805069,344.372375 94.560059,344.589386 94.275055,344.988373 C 92.351059,347.709381 90.687057,350.058380 91.699066,353.349365 C 92.418060,355.686371 93.533066,356.857361 95.553070,357.392365 C 97.678070,357.958374 100.100067,357.628387 102.162064,356.546387 C 102.605057,356.313385 103.031067,356.045380 103.433060,355.745361 C 105.413055,354.268372 106.542068,352.209381 106.615067,349.953369 C 106.705063,346.861389 104.418060,342.828369 101.814056,341.490387 C 100.556061,340.841370 99.755066,341.066376 98.468063,341.452362 C 97.573059,341.720367 97.234070,342.003387 96.380066,342.625366 C 96.070068,342.853363 95.504059,343.377380 95.080063,343.966370  z"  />
<path  style="fill:#ffffff;fill-opacity:1.000000;stroke:#ffffff;stroke-width:1.000000px;stroke-opacity:1.000000;stroke-linecap:butt;stroke-linejoin:miter;"
 d="M 301.555054,428.391388 C 300.616058,431.458374 298.299072,432.992371 294.608063,432.992371 C 293.354065,432.992371 292.354065,432.772369 291.602051,432.335388 C 290.600067,431.647369 289.913055,430.270386 289.538055,428.204376 C 288.786072,424.636383 288.036072,421.851379 287.284058,419.848389 C 287.096069,423.291382 285.220062,426.782379 281.651062,430.317383 C 278.082062,433.852386 274.483063,435.622375 270.854065,435.622375 C 266.284058,435.622375 263.122070,432.585388 261.372070,426.515381 C 260.745056,424.262390 260.433075,422.135376 260.433075,420.131378 C 260.433075,414.310364 263.406067,409.333374 269.353058,405.202362 C 274.234070,402.324371 279.148071,399.474365 284.093048,396.658386 C 284.341064,395.595367 284.468048,394.561371 284.468048,393.559387 C 284.468048,391.620361 283.935059,390.477386 282.872070,390.132385 C 281.806061,389.789368 280.899048,389.615387 280.149048,389.615387 C 278.835052,389.615387 277.754059,390.038361 276.909058,390.883362 C 276.065063,391.729370 275.266052,392.527374 274.514069,393.278381 C 273.764069,393.780365 272.793060,394.937378 271.604065,396.752380 C 270.666077,398.192383 269.633057,398.975372 268.506073,399.100372 C 266.877075,399.288361 265.408051,398.724365 264.094055,397.410370 C 262.780060,396.096375 262.121063,394.562378 262.121063,392.809387 C 262.121063,391.809387 262.371063,390.901367 262.873077,390.086365 C 264.312073,387.708374 266.471069,385.643372 269.352051,383.890381 C 273.731049,381.261383 279.209076,379.947388 285.782074,379.947388 C 289.975067,379.947388 292.854065,381.951385 294.421051,385.956360 C 295.421051,388.647369 296.171051,393.687378 296.673065,401.072388 C 297.237061,410.023376 297.925049,416.563385 298.739075,420.694366 C 298.864075,421.508362 299.395050,422.542389 300.335052,423.793365 C 301.274048,425.046387 301.743073,426.141388 301.743073,427.079376 C 282.103058,416.124390 301.680054,427.954376 301.555054,428.391388  zM 285.219055,405.295380 C 283.340057,406.297363 281.477051,407.330383 279.631073,408.394379 C 277.785065,409.458374 276.078064,410.868378 274.514069,412.619385 C 272.262054,415.186371 271.135071,417.377380 271.135071,419.191376 C 271.135071,420.693390 271.697052,422.258362 272.824066,423.885376 C 273.449066,424.763367 274.138062,425.199371 274.890076,425.199371 C 276.517059,425.199371 278.285065,423.385376 280.195068,419.754364 C 282.103058,416.124390 283.777069,411.303375 285.219055,405.295380  z"  />
<path  style="fill:#ffffff;fill-opacity:1.000000;stroke:#ffffff;stroke-width:1.000000px;stroke-opacity:1.000000;stroke-linecap:butt;stroke-linejoin:miter;"
 d="M 600.578064,416.749390 C 600.516052,418.127380 599.920044,419.535370 598.795044,420.975372 C 597.041077,423.040375 595.914062,424.606384 595.414062,425.669373 C 591.471069,431.678375 587.400085,434.683380 583.209045,434.683380 C 578.264038,434.683380 574.414062,432.180389 571.660034,427.171387 C 569.219055,422.603363 567.998047,416.844360 567.998047,409.896362 C 567.998047,401.948364 569.500061,395.031372 572.506042,389.147369 C 575.822083,382.637390 580.110046,379.382385 585.367065,379.382385 C 589.500061,379.382385 592.847046,381.667389 595.414062,386.236389 C 597.541077,390.118378 598.605042,394.343384 598.605042,398.911377 C 598.605042,400.164368 598.511047,401.259369 598.324036,402.197388 C 597.886047,404.326385 596.101074,405.389374 592.972046,405.389374 C 590.531067,405.389374 588.654053,404.701385 587.339050,403.324371 C 586.712036,402.636383 586.400085,401.040375 586.400085,398.536377 C 586.400085,397.911377 586.431091,397.003387 586.494080,395.813385 C 586.494080,394.561371 586.494080,393.653381 586.494080,393.090363 C 586.494080,390.273376 585.992065,388.864380 584.992065,388.864380 C 583.928040,388.864380 582.801086,391.948364 581.613037,398.112366 C 580.422058,404.278381 579.828064,410.052368 579.828064,415.434387 C 579.828064,421.694366 580.767090,424.824371 582.644043,424.824371 C 585.085083,424.824371 586.900085,422.852386 588.091064,418.909363 C 588.591064,418.346375 588.872070,417.219360 588.935059,415.529388 C 588.935059,414.026367 589.310059,413.041382 590.062073,412.571381 C 590.814087,412.101379 591.908081,411.867371 593.347046,411.867371 C 595.226074,411.867371 596.853088,412.275360 598.230042,413.088379 C 599.857056,414.026367 600.641052,415.247375 600.578064,416.749390  z"  />
<path  style="fill:#ffffff;fill-opacity:1.000000;stroke:#ffffff;stroke-width:1.000000px;stroke-opacity:1.000000;stroke-linecap:butt;stroke-linejoin:miter;"
 d="M 185.980072,365.161377 C 171.441055,368.788361 172.197052,368.220367 170.455063,368.629364 C 159.767059,370.254364 158.701065,365.991364 158.289062,364.989380 C 151.871063,352.271362 205.361053,331.650360 214.766052,328.523376 C 220.116058,326.962372 223.045074,325.820374 225.395050,324.330383 C 232.854065,320.556366 231.057068,312.532379 226.305054,306.206360 C 214.907074,294.882385 148.655060,331.404388 141.528061,334.596375 C 138.671066,336.075378 135.548065,335.556366 136.823059,331.212372 C 137.624069,327.033386 146.721069,306.588379 147.391068,305.179382 C 146.891068,304.226379 167.526062,265.028381 171.168060,258.656372 C 173.660065,254.300385 173.826050,243.760376 168.941055,241.511353 C 166.134064,239.961365 164.527069,239.615356 160.453064,242.376373 C 157.992065,244.042389 140.906067,266.972382 139.764069,267.716370 C 140.721069,263.432373 143.092056,258.983368 144.043060,256.840363 C 146.020065,252.386383 155.254059,230.040375 146.133057,226.985382 C 141.904053,225.715378 139.033066,227.774353 137.324066,228.672363 C 130.998062,232.747375 120.158066,256.823364 117.820068,258.744385 C 119.984070,247.235382 121.709061,243.559387 115.802063,241.608368 C 107.089066,238.730377 104.486069,242.316376 101.898056,248.237366 C 99.882065,252.978363 97.443069,257.361389 94.914062,263.122375 C 92.728058,266.542389 84.914062,285.309387 84.328064,286.862366 C 83.086060,290.155365 69.697067,322.855377 68.480057,327.552368 C 67.367065,332.229370 66.730057,343.884369 67.466064,347.773376 C 67.884064,349.439362 67.648056,350.597382 68.450058,352.132385 C 67.823059,352.460388 70.393066,358.418365 70.647064,358.981384 C 73.668060,365.667389 82.684067,383.489380 82.991058,384.178375 C 82.688065,384.336365 79.833069,381.295380 78.675064,380.912384 C 73.818069,378.578369 67.220062,378.458374 63.757065,378.823364 C 56.558060,379.709381 48.066055,383.385376 43.591064,391.518372 C 42.062065,394.300385 42.132065,396.487366 43.681061,399.440369 C 47.019058,404.017365 50.408066,405.407379 50.763062,405.804382 C 66.011063,414.106384 102.941055,427.981384 104.148056,428.522369 C 106.078064,429.307373 109.736069,431.637390 111.761063,432.497375 C 116.730057,434.222382 127.796066,436.149384 134.181061,436.179382 C 139.292068,436.465363 146.519043,435.561371 147.800064,434.968384 C 148.775055,434.613373 155.093063,432.502380 161.415070,432.605377 C 163.419067,432.626373 173.782074,434.112366 181.032074,433.553375 C 190.538055,433.286377 187.247070,423.801361 180.790070,424.233368 C 175.784058,424.575378 172.202057,424.298370 170.589066,424.063385 C 168.329056,424.192383 166.448059,423.463379 163.435059,423.754364 C 156.906067,424.382385 163.970062,418.842377 165.583069,416.600372 C 166.690063,414.256378 165.097061,409.828369 160.495056,411.825378 C 158.485062,411.975372 141.692062,427.832367 134.710068,426.958374 C 128.745056,426.541382 118.075058,423.612366 113.665070,421.252380 C 109.069061,419.625366 90.679062,414.644379 88.052063,412.417389 C 85.300064,410.394379 45.982056,397.854370 61.431061,388.485382 C 62.699066,388.164368 66.369064,386.131378 72.997055,390.235382 C 77.214066,392.315369 80.073059,394.202362 83.237061,395.697388 C 87.440063,396.918365 91.296066,398.864380 97.397064,399.546387 C 100.204056,399.937378 110.567062,400.870361 115.538055,401.894379 C 119.091064,402.955383 120.417068,403.412384 122.337067,403.693390 C 132.179062,404.414368 112.435059,391.452362 103.626068,391.946381 C 101.417068,392.098389 99.085068,391.366364 97.749069,391.397369 C 95.118057,391.459381 95.515060,390.445374 94.733063,388.586365 C 93.917068,386.639374 87.921066,373.136383 88.051056,373.065369 C 86.039062,369.228363 73.637070,348.372375 76.072067,332.794373 C 77.189056,329.367371 78.478058,325.386383 83.566055,313.450378 C 86.066055,307.244385 108.843063,250.729370 108.767059,250.588379 C 117.992065,245.985382 103.929062,284.137390 100.945068,291.644379 C 99.263062,295.649384 84.101059,326.233368 88.160065,329.268372 C 92.586060,331.994385 101.435059,314.511383 104.111069,308.539368 C 106.920059,303.228363 114.150055,285.385376 114.730057,285.081360 C 114.699066,283.565369 135.115067,242.773376 136.033066,241.705383 C 137.883057,239.113373 139.047058,235.676392 140.547058,234.889374 C 141.524063,234.578369 143.190063,233.741394 142.735062,236.563354 C 142.604065,239.013367 142.460052,240.103394 142.108063,240.748383 C 141.487061,243.841370 132.682068,269.643372 129.936066,274.631378 C 129.844055,275.514374 109.592056,315.096375 107.737061,316.069366 C 107.762070,316.119385 100.067062,330.378387 104.151062,330.308380 C 113.364059,331.305389 125.585068,302.091370 131.340057,294.739380 C 135.602066,287.641388 140.735062,280.197388 145.336060,272.762390 C 151.910065,264.231384 163.266068,247.744385 165.252060,250.602386 C 166.012085,250.204376 165.688065,254.756378 164.770065,255.569366 C 164.815063,257.721375 145.622055,289.986389 140.825043,298.869385 C 136.930069,305.236389 124.983063,329.009369 124.868057,335.698364 C 124.481064,346.610382 140.364059,344.160370 140.161057,343.771362 C 145.038055,342.166382 149.186066,340.758362 154.667053,337.948364 C 161.646057,334.596375 198.690063,315.744385 209.243073,313.048370 C 223.370056,310.161377 220.722076,316.788361 215.743073,319.960388 C 212.739075,321.534363 201.975067,324.853363 198.333069,326.458374 C 162.614075,342.188385 156.093063,347.562378 149.671066,352.597382 C 146.271057,355.812378 138.692062,363.135376 143.964066,369.563385 C 149.402069,376.494385 161.521057,376.463379 165.556061,376.561371 C 170.970062,376.690369 180.652069,374.637390 180.663055,374.659363 C 180.663055,374.659363 189.892059,373.069366 191.987061,369.664368 C 196.037048,363.087372 185.980072,365.161377 185.980072,365.161377  z"  />
<path  style="fill:#ffffff;fill-opacity:1.000000;stroke:#000000;stroke-width:1.000000px;stroke-opacity:1.000000;stroke-linecap:butt;stroke-linejoin:miter;"
 d="M 504.064087,384.827362 C 504.064087,385.704376 503.578064,387.066376 502.607056,388.911377 C 501.636047,390.759369 501.152039,392.276367 501.152039,393.465363 C 501.152039,393.465363 501.152039,421.069366 501.152039,421.069366 C 501.152039,422.322388 501.496033,424.090363 502.185059,426.374390 C 502.873047,428.659363 503.218079,430.239380 503.218079,431.115387 C 503.218079,432.367371 502.716064,433.305389 501.716064,433.931366 C 500.150085,434.932373 498.460083,435.434387 496.646057,435.434387 C 494.267090,435.434387 492.576050,434.620361 491.576050,432.993378 C 490.262085,430.990387 489.605042,425.013367 489.605042,415.060364 C 489.605042,412.682373 489.652039,408.973389 489.746033,403.934387 C 489.840088,398.896362 489.887085,395.218384 489.887085,392.902374 C 489.887085,392.027374 489.793091,390.883362 489.606079,389.475372 C 489.417053,388.067383 489.323059,387.050385 489.323059,386.424377 C 489.323059,384.358368 490.075073,382.574371 491.577087,381.071381 C 492.202087,380.446381 493.360046,380.133362 495.052063,380.133362 C 496.741089,380.133362 498.431091,380.400360 500.122070,380.931366 C 501.811035,381.464386 502.892090,382.074371 503.360046,382.762390 C 499.744080,360.228363 504.064087,384.139374 504.064087,384.827362  zM 502.844055,361.918365 C 503.032043,362.106384 503.125061,362.420380 503.125061,362.857361 C 503.125061,363.420380 502.937073,364.391388 502.561035,365.767365 C 502.123047,367.457367 501.842041,368.617371 501.717041,369.242371 C 501.590088,369.868378 501.653076,371.246368 501.905090,373.373383 C 501.905090,374.687378 501.512085,375.549377 500.731079,375.955383 C 499.948059,376.362366 498.961060,376.565369 497.774048,376.565369 C 496.083069,376.565369 494.362061,376.221375 492.610046,375.532379 C 490.481079,374.656372 489.417053,373.499390 489.417053,372.058380 C 489.417053,371.620361 489.606079,371.010376 489.981079,370.227386 C 490.356079,369.445374 490.575073,368.804382 490.637085,368.302368 C 490.762085,367.802368 490.762085,366.550385 490.637085,364.546387 C 490.512085,362.983368 490.826050,361.917389 491.576050,361.355377 C 492.576050,360.603363 494.361084,360.228363 496.928040,360.228363 C 499.744080,360.228363 501.717041,360.792389 502.844055,361.918365  z"  />
<path  style="fill:#ffffff;fill-opacity:1.000000;stroke:#000000;stroke-width:1.000000px;stroke-opacity:1.000000;stroke-linecap:butt;stroke-linejoin:miter;"
 d="M 645.549072,424.448364 C 645.926086,426.013367 646.113037,427.015381 646.113037,427.453369 C 646.113037,428.767365 645.345093,429.847382 643.812073,430.692383 C 642.277039,431.537384 640.634033,431.959381 638.882080,431.959381 C 636.191040,431.959381 634.470093,430.959381 633.718079,428.955383 C 633.406067,428.143372 633.249084,427.453369 633.249084,426.890381 C 633.249084,426.078369 633.608032,425.200378 634.329041,424.261383 C 635.048035,423.322388 635.409058,422.447388 635.409058,421.632385 C 636.159058,418.378387 636.536072,413.684387 636.536072,407.548370 C 636.536072,396.908386 635.784058,391.463379 634.282043,391.212372 C 633.155090,391.024384 631.339050,392.808380 628.837036,396.564362 C 626.208069,400.507385 624.017090,404.920380 622.265076,409.802368 C 620.199036,415.562378 619.322083,420.631378 619.636047,425.012390 C 619.448059,425.387390 619.355042,425.763367 619.355042,426.139374 C 619.355042,426.701385 619.603088,427.500366 620.105042,428.533386 C 620.605042,429.566376 620.857056,430.396362 620.857056,431.021362 C 620.857056,431.647369 620.636047,432.242371 620.199036,432.805389 C 618.510071,435.245361 616.820068,436.466370 615.129089,436.466370 C 613.377075,436.466370 611.686035,435.089386 610.061035,432.335388 C 609.122070,430.708374 608.651062,421.350372 608.651062,404.263367 C 608.651062,398.004364 608.807068,383.764374 609.122070,361.543365 C 609.122070,361.167389 609.089050,360.589386 609.028076,359.806366 C 608.964050,359.025360 608.934082,358.414368 608.934082,357.975372 C 608.995056,357.351379 609.182068,356.787384 609.496033,356.286377 C 610.184082,354.972382 611.656067,354.314362 613.908081,354.314362 C 615.912048,354.314362 617.742065,354.846375 619.402039,355.910370 C 621.058044,356.975372 621.701050,358.226379 621.326050,359.666382 C 621.264038,360.042389 620.965088,360.480377 620.433044,360.980377 C 619.902039,361.482361 619.636047,361.982361 619.636047,362.482361 C 619.636047,362.482361 619.636047,392.714386 619.636047,392.714386 C 623.202087,384.702362 628.460083,380.446381 635.409058,379.945374 C 639.165039,379.695374 642.169067,382.512390 644.423035,388.395386 C 646.487061,393.779388 647.521057,400.381378 647.521057,408.205383 C 647.521057,414.214386 646.863037,419.629364 645.549072,424.448364  z"  />
<path  style="fill:#ffffff;fill-opacity:1.000000;stroke:#000000;stroke-width:1.000000px;stroke-opacity:1.000000;stroke-linecap:butt;stroke-linejoin:miter;"
 d="M 351.596069,426.326385 C 351.469055,427.703369 350.563049,428.877380 348.873077,429.847382 C 347.184052,430.819366 345.305054,431.302368 343.240051,431.302368 C 340.172058,431.302368 338.076050,430.332367 336.949066,428.392365 C 337.449066,409.114380 336.885071,399.350372 335.258057,399.099365 C 333.694061,398.849365 329.875061,407.487366 323.805054,425.012390 C 323.805054,426.890381 323.805054,428.768372 323.805054,430.645386 C 323.743073,432.899384 323.131073,434.495361 321.973053,435.434387 C 320.815063,436.372375 319.580048,436.842377 318.266052,436.842377 C 316.012054,436.842377 313.602051,435.621368 311.036072,433.180389 C 310.286072,432.554382 309.878052,427.798370 309.815063,418.909363 C 309.877075,424.354370 309.909058,414.247375 309.909058,388.583374 C 309.909058,388.020386 309.847076,387.254364 309.721069,386.282379 C 309.596069,385.312378 309.533051,384.608368 309.533051,384.170380 C 309.533051,382.982361 309.845062,381.949371 310.472076,381.071381 C 311.222076,379.945374 312.411072,379.382385 314.038055,379.382385 C 315.729065,379.382385 317.497070,379.899384 319.343048,380.931366 C 321.189056,381.964386 322.302063,382.950378 322.677063,383.889374 C 322.927063,384.515381 323.052063,385.142365 323.052063,385.767365 C 323.052063,386.393372 322.802063,387.269379 322.302063,388.396362 C 321.800049,389.522369 321.550049,390.461365 321.550049,391.212372 C 321.550049,391.212372 321.550049,404.168365 321.550049,404.168365 C 325.493073,395.781372 328.466064,390.242371 330.470062,387.550385 C 334.038055,382.919373 338.075073,380.759369 342.581055,381.071381 C 345.272064,381.259369 347.183075,383.763367 348.308075,388.583374 C 349.185059,392.214386 349.654053,397.596375 349.716064,404.731384 C 349.716064,410.365387 349.716064,415.998383 349.716064,421.631378 C 349.841064,422.069366 350.280060,422.852386 351.030060,423.978363 C 351.469055,424.605377 351.656067,425.386383 351.596069,426.326385  z"  />
<path  style="fill:#ffffff;fill-opacity:1.000000;stroke:#000000;stroke-width:1.000000px;stroke-opacity:1.000000;stroke-linecap:butt;stroke-linejoin:miter;"
 d="M 543.777039,389.710388 C 543.275085,389.710388 542.494080,389.507385 541.429077,389.100372 C 540.364075,388.693390 539.552063,388.490387 538.990051,388.490387 C 538.551086,388.490387 538.111084,388.584381 537.676086,388.771362 C 537.676086,388.771362 534.201050,390.555389 534.201050,390.555389 C 534.201050,390.555389 534.201050,422.664368 534.201050,422.664368 C 534.201050,423.854370 534.842041,425.387390 536.125061,427.265381 C 537.408081,429.143372 537.924072,430.645386 537.676086,431.772369 C 537.362061,433.148376 536.438049,434.244385 534.905090,435.058380 C 533.372070,435.870361 531.729065,436.279388 529.977051,436.279388 C 526.659058,436.279388 524.373047,434.807373 523.123047,431.866364 C 522.746033,430.990387 522.527039,428.205383 522.465088,423.511383 C 522.403076,420.381378 522.434082,415.499390 522.559082,408.864380 C 522.684082,401.353363 522.747070,396.597382 522.747070,394.593384 C 522.372070,394.719360 521.745056,395.142365 520.870056,395.861389 C 519.993042,396.581360 519.116089,396.940369 518.241089,396.940369 C 517.552063,396.940369 516.675049,396.752380 515.612061,396.378387 C 511.231079,394.875366 509.040039,393.343384 509.040039,391.777374 C 509.040039,391.401367 509.134033,390.995361 509.321045,390.556366 C 509.760071,389.555389 510.575073,388.992371 511.762085,388.866364 C 513.576050,388.617371 514.672058,388.397369 515.047058,388.209381 C 516.486084,387.646362 519.115051,386.301361 522.934082,384.172363 C 522.934082,384.172363 522.934082,376.004364 522.934082,376.004364 C 522.934082,375.379364 522.762085,374.549377 522.418091,373.516388 C 522.074036,372.483368 521.902039,371.717377 521.902039,371.216370 C 521.902039,370.653381 522.056091,370.121368 522.371033,369.619385 C 523.998047,367.116364 526.187073,365.863373 528.943054,365.863373 C 532.134033,365.863373 534.388062,367.116364 535.703064,369.619385 C 536.203064,370.621368 536.455078,371.435364 536.455078,372.060364 C 536.455078,372.811371 536.078064,373.594360 535.328064,374.407379 C 534.576050,375.221375 534.201050,375.972382 534.201050,376.661377 C 534.201050,376.661377 534.201050,381.262390 534.201050,381.262390 C 535.328064,380.761383 536.578064,379.916382 537.957092,378.727386 C 539.019043,377.851379 539.928040,377.413361 540.680054,377.413361 C 540.992065,377.413361 541.336060,377.475372 541.713074,377.601379 C 545.656067,378.666382 547.627075,381.044373 547.627075,384.737366 C 547.627075,385.926361 547.266052,387.053375 546.547058,388.117371 C 545.826050,389.178375 544.904053,389.710388 543.777039,389.710388  z"  />
<path  style="fill:#ffffff;fill-opacity:1.000000;stroke:#000000;stroke-width:1.000000px;stroke-opacity:1.000000;stroke-linecap:butt;stroke-linejoin:miter;" 
 d="M 481.344055,422.476379 C 480.844055,424.856384 479.153076,427.391388 476.276062,430.081360 C 475.837036,430.770386 474.116089,431.677368 471.112061,432.804382 C 467.669067,434.118378 464.694092,434.682373 462.192078,434.493378 C 457.497070,434.180389 453.803040,431.489380 451.114075,426.419373 C 448.673035,421.725372 447.452087,415.967377 447.452087,409.144379 C 447.452087,401.759369 448.827087,395.281372 451.583069,389.709381 C 454.649048,383.575378 458.749084,380.132385 463.882080,379.381378 C 464.882080,379.256378 465.855042,379.193390 466.792053,379.193390 C 474.241089,379.193390 478.341064,383.762390 479.093079,392.900360 C 479.468079,397.094360 477.810059,401.665375 474.116089,406.608368 C 470.110046,412.053375 464.977051,415.873383 458.718079,418.062378 C 459.407043,420.567383 459.939087,422.194366 460.316040,422.945374 C 461.191040,424.510376 462.380066,425.292389 463.882080,425.292389 C 465.321045,425.292389 466.855042,424.729370 468.484070,423.603363 C 469.859070,422.664368 470.798035,421.757385 471.300049,420.880371 C 471.550049,420.755371 471.800049,420.051361 472.050049,418.767365 C 472.300049,417.486389 472.958069,416.561371 474.023071,415.997375 C 474.398071,415.809387 474.835083,415.716370 475.337036,415.716370 C 476.839050,415.716370 478.294067,416.452362 479.702087,417.922363 C 469.891052,390.648376 481.656067,420.913361 481.344055,422.476379  zM 466.603088,389.427368 C 464.099060,389.427368 462.064087,391.211365 460.501038,394.779388 C 458.435059,399.537384 457.589050,404.231384 457.966064,408.862366 C 460.907043,407.924377 463.630066,405.733368 466.134033,402.291382 C 468.636047,398.849365 469.890076,395.781372 469.890076,393.090363 C 469.891052,390.648376 468.795044,389.427368 466.603088,389.427368  z"  />
<path  style="fill:#ffffff;fill-opacity:1.000000;stroke:#000000;stroke-width:1.000000px;stroke-opacity:1.000000;stroke-linecap:butt;stroke-linejoin:miter;" 
 d="M 99.359070,379.451385 C 94.947067,376.688385 88.609070,369.161377 91.588058,367.207367 C 92.733063,366.457367 94.428070,366.671387 95.375061,367.066376 C 95.422058,367.088379 95.492065,367.112366 95.561066,367.133362 C 96.293060,367.362366 98.596069,368.309387 99.665070,368.766388 C 101.366058,369.492371 102.970062,370.116364 104.235062,370.297363 C 119.262070,372.468384 125.276062,362.945374 126.294067,361.939362 C 128.001068,360.247375 134.661057,358.416382 135.933060,361.637390 C 136.902069,364.092377 128.451065,370.504364 123.701065,374.385376 C 115.105057,381.408386 104.439056,382.637390 99.359070,379.451385  z"  />
<path  style="fill:#ffffff;fill-opacity:1.000000;stroke:#ffffff;stroke-width:1.000000px;stroke-opacity:1.000000;stroke-linecap:butt;stroke-linejoin:miter;"
 d="M 250.291077,401.164368 C 250.041077,406.172363 250.103058,413.369385 250.480072,422.759369 C 250.480072,423.385376 250.697052,424.261383 251.136047,425.387390 C 251.574066,426.514374 251.792053,427.328369 251.792053,427.828369 C 251.792053,429.081360 250.728058,430.144379 248.601074,431.020386 C 248.162048,431.208374 247.599060,431.301361 246.912048,431.301361 C 244.846069,431.301361 242.654053,430.739380 240.340057,429.612366 C 237.584076,428.298370 236.209076,426.734375 236.209076,424.918365 C 236.209076,424.106384 236.504059,423.040375 237.100067,421.726379 C 237.696075,420.412384 238.274048,419.129364 238.838074,417.876373 C 238.838074,417.876373 238.838074,401.728363 238.838074,401.728363 C 238.838074,401.728363 226.256073,404.357361 226.256073,404.357361 C 226.256073,407.424377 226.287048,411.743378 226.350067,417.313385 C 226.412048,422.885376 226.444061,425.702362 226.444061,425.763367 C 226.444061,426.514374 226.647064,427.673370 227.055054,429.237366 C 227.461060,430.802368 227.664062,431.929382 227.664062,432.617371 C 227.664062,433.869385 227.242065,434.886383 226.396057,435.669373 C 225.552063,436.451385 224.410065,436.843384 222.970062,436.843384 C 221.468048,436.843384 219.933075,436.435364 218.368073,435.622375 C 216.804077,434.808380 215.755066,433.978363 215.223053,433.134369 C 214.690063,432.289368 214.424072,431.679382 214.424072,431.303375 C 214.424072,431.179382 214.674072,430.522369 215.176056,429.331360 C 215.176056,426.641388 215.143066,422.259369 215.082062,416.187378 C 215.018066,410.116364 214.988068,406.235382 214.988068,404.544373 C 214.924072,404.356384 214.174072,403.011383 212.734070,400.507385 C 211.857056,399.068390 211.545074,397.723389 211.795074,396.470367 C 211.920074,395.782379 212.295074,395.218384 212.922058,394.780365 C 213.547058,394.343384 214.174072,393.904388 214.801056,393.466370 C 214.612061,378.570374 214.674072,368.491364 214.989075,363.234375 C 214.425049,362.108368 214.143066,361.201385 214.143066,360.511383 C 214.143066,359.135376 215.112061,357.976379 217.053070,357.037384 C 217.865051,356.662384 219.026062,356.474365 220.528076,356.474365 C 225.411072,356.474365 228.382050,357.788361 229.448059,360.417389 C 229.636047,360.919373 229.729065,361.389374 229.729065,361.825378 C 229.729065,362.703369 229.180054,364.001373 228.086060,365.721375 C 226.988068,367.444366 226.441071,368.867371 226.441071,369.993378 C 226.066071,380.008362 226.003052,387.456360 226.253052,392.338379 C 232.388062,391.275360 236.454071,390.461365 238.458069,389.898376 C 237.896057,382.262390 237.958069,373.312378 238.647064,363.045380 C 238.083069,361.482361 237.801056,360.197388 237.801056,359.195374 C 237.801056,357.317383 238.959076,355.785370 241.276062,354.594360 C 241.776062,354.345367 242.495056,354.219360 243.434052,354.219360 C 245.625061,354.219360 247.752075,354.751373 249.819061,355.815369 C 252.198059,357.068390 253.417053,358.665375 253.481049,360.603363 C 253.542053,361.481384 252.995056,362.575378 251.838074,363.889374 C 250.678070,365.203369 250.100067,366.363373 250.100067,367.364380 C 249.975067,376.377380 250.038055,383.951385 250.288055,390.085388 C 251.290070,390.899384 252.308075,392.089386 253.341064,393.652374 C 254.372070,395.217377 254.890076,396.502380 254.890076,397.502380 C 254.890076,398.504364 254.357056,399.255371 253.294067,399.756378 C 252.230072,400.256378 251.230072,400.726379 250.291077,401.164368  z"  />
<path  style="fill:#ffffff;fill-opacity:1.000000;stroke:#ffffff;stroke-width:1.000000px;stroke-opacity:1.000000;stroke-linecap:butt;stroke-linejoin:miter;"
 d="M 560.412903,421.725372 C 560.500122,422.476379 560.456177,423.353363 560.281677,424.354370 C 559.931274,425.919373 559.735107,426.795380 559.691101,426.983368 C 559.647827,427.985382 559.592712,429.034363 559.527771,430.129364 C 559.462158,431.225372 559.222046,432.086365 558.806763,432.711365 C 558.391418,433.336365 557.572632,433.649384 556.349731,433.649384 C 555.125427,433.649384 554.055359,433.304382 553.137451,432.616364 C 552.045715,431.865387 551.476807,430.833374 551.433594,429.518372 C 551.433594,428.955383 551.553650,428.266388 551.795105,427.453369 C 552.035278,426.640381 552.187439,426.014374 552.253052,425.575378 C 552.318665,425.137390 552.329102,423.948364 552.285828,422.007385 C 552.285828,420.569366 552.536438,419.505371 553.039734,418.816376 C 553.541565,418.128387 554.338745,417.783386 555.432495,417.783386 C 556.568176,417.783386 557.638245,418.144379 558.643433,418.863373 C 559.648560,419.582367 560.238403,420.537384 560.412903,421.725372  z"  />
<path  style="fill:#ffffff;fill-opacity:1.000000;stroke:#ffffff;stroke-width:1.000000px;stroke-opacity:1.000000;stroke-linecap:butt;stroke-linejoin:miter;"
 d="M 117.980057,343.887390 C 114.185059,344.345367 110.197067,347.975372 110.091064,353.257385 C 110.064056,354.681366 110.986069,356.378387 112.556061,357.800385 C 114.226059,359.311371 116.316055,360.211365 117.749069,360.036377 C 117.880066,360.021362 118.604065,359.740387 118.718063,359.681366 C 120.406067,358.825378 124.189056,353.725372 124.687057,351.031372 C 125.201065,348.243378 123.019058,346.164368 121.003067,344.631378 C 120.527069,344.264374 118.545059,343.820374 117.980057,343.887390  z"  />
<path  style="fill:#ffffff;fill-opacity:1.000000;stroke:#ffffff;stroke-width:1.000000px;stroke-opacity:1.000000;stroke-linecap:butt;stroke-linejoin:miter;"
 d="M 393.185059,431.771362 C 392.433075,433.461365 390.117065,434.306366 386.238068,434.306366 C 383.797058,434.306366 382.168060,433.804382 381.355072,432.804382 C 381.041077,432.490387 380.886047,432.053375 380.886047,431.490387 C 380.886047,431.052368 381.040070,430.363373 381.355072,429.425385 C 381.667053,428.486389 381.855072,427.767365 381.917053,427.265381 C 379.038055,431.334381 375.657074,433.369385 371.778076,433.369385 C 366.581055,433.369385 362.796051,430.428375 360.417053,424.543365 C 358.601074,420.036377 357.694061,414.185364 357.694061,406.986389 C 357.694061,400.352386 359.102051,394.310364 361.919067,388.865387 C 365.048065,382.920380 368.898071,379.946381 373.468048,379.946381 C 376.034058,379.946381 378.663055,382.011383 381.355072,386.142365 C 381.355072,386.142365 381.355072,374.031372 381.355072,374.031372 C 381.355072,373.030365 380.947052,371.747375 380.134064,370.181366 C 379.320068,368.618378 378.913055,367.427368 378.913055,366.614380 C 378.913055,365.989380 379.069061,365.362366 379.382050,364.736389 C 380.696075,361.919373 383.263062,360.510376 387.081055,360.510376 C 390.210052,360.510376 392.151062,361.637390 392.903076,363.890381 C 393.151062,364.642365 393.278076,365.362366 393.278076,366.050385 C 393.278076,366.739380 393.075073,367.662384 392.667053,368.820374 C 392.261047,369.979370 392.058075,370.965363 392.058075,371.777374 C 392.058075,371.777374 392.058075,425.294373 392.058075,425.294373 C 392.058075,425.983368 392.308075,426.813385 392.810059,427.782379 C 393.310059,428.754364 393.560059,429.552368 393.560059,430.177368 C 379.666077,414.589386 393.435059,431.208374 393.185059,431.771362  zM 380.228058,406.985382 C 380.228058,404.106384 379.632050,400.726379 378.445068,396.844360 C 377.131073,392.713379 375.847076,390.648376 374.595062,390.648376 C 373.154053,390.648376 371.997070,392.558380 371.120056,396.376373 C 370.431061,399.506378 370.087067,403.042389 370.087067,406.985382 C 370.087067,407.674377 370.056061,408.800385 369.993073,410.365387 C 369.993073,411.867371 369.993073,413.026367 369.993073,413.839386 C 369.993073,420.913361 371.526062,424.448364 374.595062,424.448364 C 376.034058,424.448364 377.349060,422.415375 378.538055,418.345367 C 379.666077,414.589386 380.228058,410.803375 380.228058,406.985382  z"  />
<path  style="fill:#ffffff;fill-opacity:1.000000;stroke:#000000;stroke-width:1.000000px;stroke-opacity:1.000000;stroke-linecap:butt;stroke-linejoin:miter;" 
 d="M 443.978088,387.832367 C 443.790039,389.209381 443.039062,390.461365 441.724060,391.587372 C 439.783081,393.341370 438.656067,394.404388 438.345093,394.779388 C 438.345093,394.779388 417.689056,422.758362 417.689056,422.758362 C 417.689056,422.758362 431.773071,420.504364 431.773071,420.504364 C 432.461060,420.379364 433.400085,420.051361 434.589050,419.519379 C 435.777039,418.988373 436.747070,418.720367 437.499084,418.720367 C 439.251038,418.720367 440.753052,419.519379 442.005066,421.115387 C 443.257080,422.711365 443.884033,424.418365 443.884033,426.232361 C 443.884033,427.797363 443.460083,429.034363 442.616089,429.940369 C 441.770081,430.848389 440.690063,431.301361 439.376038,431.301361 C 439.064087,431.301361 438.155090,431.207367 436.653076,431.020386 C 435.464050,430.895386 434.462036,430.895386 433.649048,431.020386 C 433.649048,431.020386 416.186066,433.743378 416.186066,433.743378 C 415.434052,433.868378 414.307068,434.306366 412.805054,435.057373 C 411.553070,435.745361 410.426056,436.058380 409.426056,435.996368 C 407.110077,435.869385 405.074066,435.071381 403.322052,433.601379 C 401.568054,432.131378 400.693054,430.394379 400.693054,428.390381 C 400.693054,428.014374 400.724060,427.639374 400.787048,427.263367 C 401.037048,425.761383 401.664062,424.573364 402.666077,423.696381 C 404.228058,422.320374 405.105072,421.506378 405.295074,421.255371 C 405.295074,421.255371 426.324066,392.150360 426.324066,392.150360 C 426.324066,392.150360 416.185059,393.464386 416.185059,393.464386 C 415.683075,393.527374 415.011047,393.715363 414.165070,394.027374 C 413.321075,394.341370 412.647064,394.497375 412.147064,394.497375 C 411.583069,394.497375 410.987061,394.342377 410.362061,394.027374 C 406.796051,392.400360 405.010071,390.241364 405.010071,387.548370 C 405.010071,386.046387 405.604065,384.576385 406.795074,383.136383 C 407.545074,382.197388 408.609070,381.727386 409.986053,381.727386 C 410.424072,381.727386 411.394073,381.854370 412.896057,382.103363 C 414.148071,382.229370 415.181061,382.260376 415.996063,382.197388 C 415.996063,382.197388 430.642090,380.508362 430.642090,380.508362 C 431.392090,380.446381 432.425049,380.179382 433.740051,379.709381 C 435.054077,379.240387 436.088074,379.005371 436.838074,379.005371 C 438.717041,379.005371 440.438049,380.007385 442.002075,382.010376 C 443.570068,384.014374 444.226074,385.954376 443.978088,387.832367  z"  />
</g>
</svg>
