<?xml version="1.0" encoding="utf-8"?>
<!-- Generator: Adobe Illustrator 16.0.0, SVG Export Plug-In . SVG Version: 6.00 Build 0)  -->
<!DOCTYPE svg PUBLIC "-//W3C//DTD SVG 1.1//EN" "http://www.w3.org/Graphics/SVG/1.1/DTD/svg11.dtd">
<svg version="1.1" id="Ebene_1" xmlns="http://www.w3.org/2000/svg" xmlns:xlink="http://www.w3.org/1999/xlink" x="0px" y="0px"
	 width="841.89px" height="595.275px" viewBox="0 0 841.89 595.275" enable-background="new 0 0 841.89 595.275"
	 xml:space="preserve">
<path fill-rule="evenodd" clip-rule="evenodd" fill="none" stroke="#000000" stroke-miterlimit="10" d="M-1022.803-1268.362
	c0,2,0,4,0,6c-0.333,0-0.667,0-1,0c0-0.333,0-0.667,0-1c-0.333,0-0.667,0-1,0c0-1.333,0-2.667,0-4c-0.333,0-0.667,0-1,0
	c0-0.333,0-0.667,0-1C-1024.803-1268.362-1023.803-1268.362-1022.803-1268.362z"/>
<g>
	<path d="M334.627,413.18c-0.25,5.008-0.188,12.205,0.189,21.595c0,0.626,0.217,1.502,0.656,2.628
		c0.438,1.127,0.656,1.941,0.656,2.441c0,1.253-1.064,2.316-3.191,3.192c-0.439,0.188-1.002,0.281-1.689,0.281
		c-2.066,0-4.258-0.562-6.572-1.689c-2.756-1.314-4.131-2.878-4.131-4.694c0-0.812,0.295-1.878,0.891-3.192s1.174-2.597,1.738-3.85
		v-16.148l-12.582,2.629c0,3.067,0.031,7.386,0.094,12.956c0.062,5.572,0.094,8.389,0.094,8.45c0,0.751,0.203,1.91,0.611,3.474
		c0.406,1.565,0.609,2.692,0.609,3.38c0,1.252-0.422,2.269-1.268,3.052c-0.844,0.782-1.986,1.174-3.426,1.174
		c-1.502,0-3.037-0.408-4.602-1.221c-1.564-0.814-2.613-1.644-3.145-2.488c-0.533-0.845-0.799-1.455-0.799-1.831
		c0-0.124,0.25-0.781,0.752-1.972c0-2.69-0.033-7.072-0.094-13.144c-0.064-6.071-0.094-9.952-0.094-11.643
		c-0.064-0.188-0.814-1.533-2.254-4.037c-0.877-1.439-1.189-2.784-0.939-4.037c0.125-0.688,0.5-1.252,1.127-1.69
		c0.625-0.437,1.252-0.876,1.879-1.314c-0.189-14.896-0.127-24.975,0.188-30.232c-0.564-1.126-0.846-2.033-0.846-2.723
		c0-1.376,0.969-2.535,2.91-3.474c0.812-0.375,1.973-0.563,3.475-0.563c4.883,0,7.854,1.314,8.92,3.943
		c0.188,0.502,0.281,0.972,0.281,1.408c0,0.878-0.549,2.176-1.643,3.896c-1.098,1.723-1.645,3.146-1.645,4.272
		c-0.375,10.015-0.438,17.463-0.188,22.345c6.135-1.063,10.201-1.877,12.205-2.44c-0.562-7.636-0.5-16.586,0.189-26.853
		c-0.564-1.563-0.846-2.848-0.846-3.85c0-1.878,1.158-3.41,3.475-4.601c0.5-0.249,1.219-0.375,2.158-0.375
		c2.191,0,4.318,0.532,6.385,1.596c2.379,1.253,3.598,2.85,3.662,4.788c0.061,0.878-0.486,1.972-1.643,3.286
		c-1.16,1.314-1.738,2.474-1.738,3.475c-0.125,9.013-0.062,16.587,0.188,22.721c1.002,0.814,2.02,2.004,3.053,3.567
		c1.031,1.565,1.549,2.85,1.549,3.85c0,1.002-0.533,1.753-1.596,2.254C336.566,412.272,335.566,412.742,334.627,413.18z"/>
	<path d="M385.891,440.407c-0.939,3.067-3.256,4.601-6.947,4.601c-1.254,0-2.254-0.22-3.006-0.657
		c-1.002-0.688-1.689-2.065-2.064-4.131c-0.752-3.568-1.502-6.353-2.254-8.356c-0.188,3.443-2.064,6.934-5.633,10.469
		s-7.168,5.305-10.797,5.305c-4.57,0-7.732-3.037-9.482-9.107c-0.627-2.253-0.939-4.38-0.939-6.384
		c0-5.821,2.973-10.798,8.92-14.929c4.881-2.878,9.795-5.728,14.74-8.544c0.248-1.063,0.375-2.097,0.375-3.099
		c0-1.939-0.533-3.082-1.596-3.427c-1.066-0.343-1.973-0.517-2.723-0.517c-1.314,0-2.395,0.423-3.24,1.268
		c-0.844,0.846-1.643,1.644-2.395,2.395c-0.75,0.502-1.721,1.659-2.91,3.474c-0.938,1.44-1.971,2.223-3.098,2.348
		c-1.629,0.188-3.098-0.376-4.412-1.69s-1.973-2.848-1.973-4.601c0-1,0.25-1.908,0.752-2.723c1.439-2.378,3.598-4.443,6.479-6.196
		c4.379-2.629,9.857-3.943,16.43-3.943c4.193,0,7.072,2.004,8.639,6.009c1,2.691,1.75,7.731,2.252,15.116
		c0.564,8.951,1.252,15.491,2.066,19.622c0.125,0.814,0.656,1.848,1.596,3.099c0.939,1.253,1.408,2.348,1.408,3.286
		C386.078,439.531,386.016,439.97,385.891,440.407z M369.555,417.311c-1.879,1.002-3.742,2.035-5.588,3.099
		c-1.846,1.064-3.553,2.474-5.117,4.225c-2.252,2.567-3.379,4.758-3.379,6.572c0,1.502,0.562,3.067,1.689,4.694
		c0.625,0.878,1.314,1.314,2.066,1.314c1.627,0,3.395-1.814,5.305-5.445C366.439,428.14,368.113,423.319,369.555,417.311z"/>
	<path d="M435.932,438.342c-0.127,1.377-1.033,2.551-2.723,3.521c-1.689,0.972-3.568,1.455-5.633,1.455
		c-3.068,0-5.164-0.97-6.291-2.91c0.5-19.278-0.064-29.042-1.691-29.293c-1.564-0.25-5.383,8.388-11.453,25.913
		c0,1.878,0,3.756,0,5.633c-0.062,2.254-0.674,3.85-1.832,4.789c-1.158,0.938-2.393,1.408-3.707,1.408
		c-2.254,0-4.664-1.221-7.23-3.662c-0.75-0.626-1.158-5.382-1.221-14.271c0.062,5.445,0.094-4.662,0.094-30.326
		c0-0.563-0.062-1.329-0.188-2.301c-0.125-0.97-0.188-1.674-0.188-2.112c0-1.188,0.312-2.221,0.939-3.099
		c0.75-1.126,1.939-1.689,3.566-1.689c1.691,0,3.459,0.517,5.305,1.549c1.846,1.033,2.959,2.019,3.334,2.958
		c0.25,0.626,0.375,1.253,0.375,1.878c0,0.626-0.25,1.502-0.75,2.629c-0.502,1.126-0.752,2.065-0.752,2.816v12.956
		c3.943-8.387,6.916-13.926,8.92-16.618c3.568-4.631,7.605-6.791,12.111-6.479c2.691,0.188,4.602,2.692,5.727,7.512
		c0.877,3.631,1.346,9.013,1.408,16.148c0,5.634,0,11.267,0,16.9c0.125,0.438,0.564,1.221,1.314,2.347
		C435.805,436.621,435.992,437.402,435.932,438.342z"/>
	<path d="M477.521,443.787c-0.752,1.69-3.068,2.535-6.947,2.535c-2.441,0-4.07-0.502-4.883-1.502
		c-0.314-0.314-0.469-0.751-0.469-1.314c0-0.438,0.154-1.127,0.469-2.065c0.312-0.939,0.5-1.658,0.562-2.16
		c-2.879,4.069-6.26,6.104-10.139,6.104c-5.197,0-8.982-2.941-11.361-8.826c-1.816-4.507-2.723-10.358-2.723-17.557
		c0-6.634,1.408-12.676,4.225-18.121c3.129-5.945,6.979-8.919,11.549-8.919c2.566,0,5.195,2.065,7.887,6.196v-12.111
		c0-1.001-0.408-2.284-1.221-3.85c-0.814-1.563-1.221-2.754-1.221-3.567c0-0.625,0.156-1.252,0.469-1.878
		c1.314-2.817,3.881-4.226,7.699-4.226c3.129,0,5.07,1.127,5.822,3.38c0.248,0.752,0.375,1.472,0.375,2.16
		c0,0.689-0.203,1.612-0.611,2.77c-0.406,1.159-0.609,2.145-0.609,2.957v53.517c0,0.689,0.25,1.519,0.752,2.488
		c0.5,0.972,0.75,1.77,0.75,2.395C477.896,442.692,477.771,443.224,477.521,443.787z M464.564,419.001
		c0-2.879-0.596-6.259-1.783-10.141c-1.314-4.131-2.598-6.196-3.85-6.196c-1.441,0-2.598,1.91-3.475,5.728
		c-0.689,3.13-1.033,6.666-1.033,10.609c0,0.689-0.031,1.815-0.094,3.38c0,1.502,0,2.661,0,3.474c0,7.074,1.533,10.609,4.602,10.609
		c1.439,0,2.754-2.033,3.943-6.103C464.002,426.605,464.564,422.819,464.564,419.001z"/>
	<path d="M528.314,399.848c-0.188,1.377-0.939,2.629-2.254,3.755c-1.941,1.754-3.068,2.817-3.379,3.192l-20.656,27.979l14.084-2.254
		c0.688-0.125,1.627-0.453,2.816-0.985c1.188-0.531,2.158-0.799,2.91-0.799c1.752,0,3.254,0.799,4.506,2.395
		s1.879,3.303,1.879,5.117c0,1.565-0.424,2.802-1.268,3.708c-0.846,0.908-1.926,1.361-3.24,1.361c-0.312,0-1.221-0.094-2.723-0.281
		c-1.189-0.125-2.191-0.125-3.004,0l-17.463,2.723c-0.752,0.125-1.879,0.563-3.381,1.314c-1.252,0.688-2.379,1.001-3.379,0.939
		c-2.316-0.127-4.352-0.925-6.104-2.395c-1.754-1.47-2.629-3.207-2.629-5.211c0-0.376,0.031-0.751,0.094-1.127
		c0.25-1.502,0.877-2.69,1.879-3.567c1.562-1.376,2.439-2.19,2.629-2.441l21.029-29.105l-10.139,1.314
		c-0.502,0.063-1.174,0.251-2.02,0.563c-0.844,0.314-1.518,0.47-2.018,0.47c-0.564,0-1.16-0.155-1.785-0.47
		c-3.566-1.627-5.352-3.786-5.352-6.479c0-1.502,0.594-2.972,1.785-4.412c0.75-0.939,1.814-1.409,3.191-1.409
		c0.438,0,1.408,0.127,2.91,0.376c1.252,0.126,2.285,0.157,3.1,0.094l14.646-1.689c0.75-0.062,1.783-0.329,3.098-0.799
		c1.314-0.469,2.348-0.704,3.098-0.704c1.879,0,3.6,1.002,5.164,3.005C527.906,396.03,528.562,397.97,528.314,399.848z"/>
	<path d="M565.68,434.492c-0.5,2.38-2.191,4.915-5.068,7.605c-0.439,0.689-2.16,1.596-5.164,2.723
		c-3.443,1.314-6.418,1.878-8.92,1.689c-4.695-0.313-8.389-3.004-11.078-8.074c-2.441-4.694-3.662-10.452-3.662-17.275
		c0-7.385,1.375-13.863,4.131-19.435c3.066-6.134,7.166-9.577,12.299-10.328c1-0.125,1.973-0.188,2.91-0.188
		c7.449,0,11.549,4.569,12.301,13.707c0.375,4.194-1.283,8.765-4.977,13.708c-4.006,5.445-9.139,9.265-15.398,11.454
		c0.689,2.505,1.221,4.132,1.598,4.883c0.875,1.565,2.064,2.347,3.566,2.347c1.439,0,2.973-0.563,4.602-1.689
		c1.375-0.939,2.314-1.846,2.816-2.723c0.25-0.125,0.5-0.829,0.75-2.113c0.25-1.281,0.908-2.206,1.973-2.77
		c0.375-0.188,0.812-0.281,1.314-0.281c1.502,0,2.957,0.736,4.365,2.206C565.445,431.41,565.992,432.929,565.68,434.492z
		 M550.939,401.443c-2.504,0-4.539,1.784-6.102,5.352c-2.066,4.758-2.912,9.452-2.535,14.083c2.941-0.938,5.664-3.129,8.168-6.571
		c2.502-3.442,3.756-6.51,3.756-9.201C554.227,402.664,553.131,401.443,550.939,401.443z"/>
	<path d="M588.4,396.843c0,0.877-0.486,2.239-1.457,4.084c-0.971,1.848-1.455,3.365-1.455,4.554v27.604
		c0,1.253,0.344,3.021,1.033,5.305c0.688,2.285,1.033,3.865,1.033,4.741c0,1.252-0.502,2.19-1.502,2.816
		c-1.566,1.001-3.256,1.503-5.07,1.503c-2.379,0-4.07-0.814-5.07-2.441c-1.314-2.003-1.971-7.98-1.971-17.933
		c0-2.378,0.047-6.087,0.141-11.126c0.094-5.038,0.141-8.716,0.141-11.032c0-0.875-0.094-2.019-0.281-3.427
		c-0.189-1.408-0.283-2.425-0.283-3.051c0-2.066,0.752-3.85,2.254-5.353c0.625-0.625,1.783-0.938,3.475-0.938
		c1.689,0,3.379,0.267,5.07,0.798c1.689,0.533,2.77,1.143,3.238,1.831C588.164,395.467,588.4,396.155,588.4,396.843z
		 M587.18,373.934c0.188,0.188,0.281,0.502,0.281,0.939c0,0.563-0.188,1.534-0.564,2.91c-0.438,1.69-0.719,2.85-0.844,3.475
		c-0.127,0.626-0.064,2.004,0.188,4.131c0,1.314-0.393,2.176-1.174,2.582c-0.783,0.407-1.77,0.61-2.957,0.61
		c-1.691,0-3.412-0.344-5.164-1.033c-2.129-0.876-3.193-2.033-3.193-3.474c0-0.438,0.189-1.048,0.564-1.831
		c0.375-0.782,0.594-1.423,0.656-1.925c0.125-0.5,0.125-1.752,0-3.756c-0.125-1.563,0.189-2.629,0.939-3.191
		c1-0.752,2.785-1.127,5.352-1.127C584.08,372.244,586.053,372.808,587.18,373.934z"/>
	<path d="M628.113,401.726c-0.502,0-1.283-0.203-2.348-0.61s-1.877-0.61-2.439-0.61c-0.439,0-0.879,0.094-1.314,0.281l-3.475,1.784
		v32.109c0,1.19,0.641,2.723,1.924,4.601s1.799,3.38,1.551,4.507c-0.314,1.376-1.238,2.472-2.771,3.286
		c-1.533,0.812-3.176,1.221-4.928,1.221c-3.318,0-5.604-1.472-6.854-4.413c-0.377-0.876-0.596-3.661-0.658-8.355
		c-0.062-3.13-0.031-8.012,0.094-14.647c0.125-7.511,0.188-12.267,0.188-14.271c-0.375,0.126-1.002,0.549-1.877,1.268
		c-0.877,0.72-1.754,1.079-2.629,1.079c-0.689,0-1.566-0.188-2.629-0.562c-4.381-1.503-6.572-3.035-6.572-4.601
		c0-0.376,0.094-0.782,0.281-1.221c0.439-1.001,1.254-1.564,2.441-1.69c1.814-0.249,2.91-0.469,3.285-0.657
		c1.439-0.563,4.068-1.908,7.887-4.037v-8.168c0-0.625-0.172-1.455-0.516-2.488s-0.516-1.799-0.516-2.3
		c0-0.563,0.154-1.095,0.469-1.597c1.627-2.503,3.816-3.756,6.572-3.756c3.191,0,5.445,1.253,6.76,3.756
		c0.5,1.002,0.752,1.816,0.752,2.441c0,0.751-0.377,1.534-1.127,2.347c-0.752,0.814-1.127,1.565-1.127,2.254v4.601
		c1.127-0.501,2.377-1.346,3.756-2.535c1.062-0.876,1.971-1.314,2.723-1.314c0.312,0,0.656,0.062,1.033,0.188
		c3.943,1.065,5.914,3.443,5.914,7.136c0,1.189-0.361,2.316-1.08,3.38C630.162,401.194,629.24,401.726,628.113,401.726z"/>
	<path d="M644.73,433.741c0.125,0.751,0.062,1.628-0.188,2.629c-0.502,1.565-0.783,2.441-0.846,2.629
		c-0.062,1.002-0.141,2.051-0.234,3.146c-0.094,1.096-0.438,1.957-1.033,2.582s-1.768,0.938-3.52,0.938
		c-1.754,0-3.287-0.345-4.602-1.033c-1.564-0.751-2.379-1.783-2.441-3.098c0-0.563,0.172-1.252,0.518-2.065
		c0.344-0.813,0.562-1.439,0.656-1.878c0.094-0.438,0.109-1.627,0.047-3.568c0-1.438,0.359-2.502,1.08-3.191
		c0.719-0.688,1.861-1.033,3.428-1.033c1.627,0,3.16,0.361,4.6,1.08C643.635,431.598,644.48,432.553,644.73,433.741z"/>
	<path d="M684.914,428.765c-0.062,1.378-0.658,2.786-1.783,4.226c-1.754,2.065-2.881,3.631-3.381,4.694
		c-3.943,6.009-8.014,9.014-12.205,9.014c-4.945,0-8.795-2.503-11.549-7.512c-2.441-4.568-3.662-10.327-3.662-17.275
		c0-7.948,1.502-14.865,4.508-20.749c3.316-6.51,7.604-9.765,12.861-9.765c4.133,0,7.48,2.285,10.047,6.854
		c2.127,3.882,3.191,8.107,3.191,12.675c0,1.253-0.094,2.348-0.281,3.286c-0.438,2.129-2.223,3.192-5.352,3.192
		c-2.441,0-4.318-0.688-5.633-2.065c-0.627-0.688-0.939-2.284-0.939-4.788c0-0.625,0.031-1.533,0.094-2.723c0-1.252,0-2.16,0-2.723
		c0-2.817-0.502-4.226-1.502-4.226c-1.064,0-2.191,3.084-3.379,9.248c-1.191,6.166-1.785,11.94-1.785,17.322
		c0,6.26,0.939,9.39,2.816,9.39c2.441,0,4.256-1.972,5.447-5.915c0.5-0.563,0.781-1.69,0.844-3.38c0-1.503,0.375-2.488,1.127-2.958
		s1.846-0.704,3.285-0.704c1.879,0,3.506,0.408,4.883,1.221C684.193,426.042,684.977,427.263,684.914,428.765z"/>
	<path d="M729.885,436.464c0.377,1.565,0.564,2.567,0.564,3.005c0,1.314-0.768,2.394-2.301,3.239
		c-1.535,0.845-3.178,1.267-4.93,1.267c-2.691,0-4.412-1-5.164-3.004c-0.312-0.812-0.469-1.502-0.469-2.065
		c0-0.812,0.359-1.69,1.08-2.629c0.719-0.939,1.08-1.814,1.08-2.629c0.75-3.254,1.127-7.948,1.127-14.084
		c0-10.64-0.752-16.085-2.254-16.336c-1.127-0.188-2.943,1.596-5.445,5.352c-2.629,3.943-4.82,8.356-6.572,13.238
		c-2.066,5.76-2.943,10.829-2.629,15.21c-0.188,0.375-0.281,0.751-0.281,1.127c0,0.562,0.248,1.361,0.75,2.394
		c0.5,1.033,0.752,1.863,0.752,2.488c0,0.626-0.221,1.221-0.658,1.784c-1.689,2.44-3.379,3.661-5.07,3.661
		c-1.752,0-3.443-1.377-5.068-4.131c-0.939-1.627-1.41-10.985-1.41-28.072c0-6.259,0.156-20.499,0.471-42.72
		c0-0.376-0.033-0.954-0.094-1.737c-0.064-0.781-0.094-1.392-0.094-1.831c0.061-0.624,0.248-1.188,0.562-1.689
		c0.688-1.314,2.16-1.972,4.412-1.972c2.004,0,3.834,0.532,5.494,1.596c1.656,1.065,2.299,2.316,1.924,3.756
		c-0.062,0.376-0.361,0.814-0.893,1.314c-0.531,0.502-0.797,1.002-0.797,1.502v30.232c3.566-8.012,8.824-12.268,15.773-12.769
		c3.756-0.25,6.76,2.567,9.014,8.45c2.064,5.384,3.098,11.986,3.098,19.81C731.857,426.23,731.199,431.645,729.885,436.464z"/>
</g>
<g>
	<path fill-rule="evenodd" clip-rule="evenodd" d="M270.316,377.177c-14.539,3.627-13.783,3.059-15.525,3.468
		c-10.688,1.625-11.754-2.638-12.166-3.64c-6.418-12.718,47.072-33.339,56.477-36.466c5.35-1.561,8.279-2.703,10.629-4.193
		c7.459-3.774,5.662-11.798,0.91-18.124c-11.398-11.324-77.65,25.198-84.777,28.39c-2.857,1.479-5.98,0.96-4.705-3.384
		c0.801-4.179,9.898-24.624,10.568-26.033c-0.5-0.953,20.135-40.151,23.777-46.523c2.492-4.356,2.658-14.896-2.227-17.145
		c-2.807-1.55-4.414-1.896-8.488,0.865c-2.461,1.666-19.547,24.596-20.689,25.34c0.957-4.284,3.328-8.733,4.279-10.876
		c1.977-4.454,11.211-26.8,2.09-29.855c-4.229-1.27-7.1,0.789-8.809,1.687c-6.326,4.075-17.166,28.151-19.504,30.072
		c2.164-11.509,3.889-15.185-2.018-17.136c-8.713-2.878-11.316,0.708-13.904,6.629c-2.016,4.741-4.455,9.124-6.984,14.885
		c-2.186,3.42-10,22.187-10.586,23.74c-1.242,3.293-14.631,35.993-15.848,40.69c-1.113,4.677-1.75,16.332-1.014,20.221
		c0.418,1.666,0.182,2.824,0.984,4.359c-0.627,0.328,1.943,6.286,2.197,6.849c3.021,6.686,12.037,24.508,12.344,25.197
		c-0.303,0.158-3.158-2.883-4.316-3.266c-4.857-2.334-11.455-2.454-14.918-2.089c-7.199,0.886-15.691,4.562-20.166,12.695
		c-1.529,2.782-1.459,4.969,0.09,7.922c3.338,4.577,6.727,5.967,7.082,6.364c15.248,8.302,52.178,22.177,53.385,22.718
		c1.93,0.785,5.588,3.115,7.613,3.975c4.969,1.725,16.035,3.652,22.42,3.682c5.111,0.286,12.338-0.618,13.619-1.211
		c0.975-0.355,7.293-2.466,13.615-2.363c2.004,0.021,12.367,1.507,19.617,0.948c9.506-0.267,6.215-9.752-0.242-9.32
		c-5.006,0.342-8.588,0.065-10.201-0.17c-2.26,0.129-4.141-0.6-7.154-0.309c-6.529,0.628,0.535-4.912,2.148-7.154
		c1.107-2.344-0.486-6.772-5.088-4.775c-2.01,0.15-18.803,16.007-25.785,15.133c-5.965-0.417-16.635-3.346-21.045-5.706
		c-4.596-1.627-22.986-6.608-25.613-8.835c-2.752-2.023-42.07-14.563-26.621-23.932c1.268-0.321,4.938-2.354,11.566,1.75
		c4.217,2.08,7.076,3.967,10.24,5.462c4.203,1.221,8.059,3.167,14.16,3.849c2.807,0.391,13.17,1.324,18.141,2.348
		c3.553,1.061,4.879,1.518,6.799,1.799c9.842,0.721-9.902-12.241-18.711-11.747c-2.209,0.152-4.541-0.58-5.877-0.549
		c-2.631,0.062-2.234-0.952-3.016-2.811c-0.816-1.947-6.812-15.45-6.682-15.521c-2.012-3.837-14.414-24.693-11.979-40.271
		c1.117-3.427,2.406-7.408,7.494-19.344c2.5-6.206,25.277-62.721,25.201-62.862c9.225-4.603-4.838,33.549-7.822,41.056
		c-1.682,4.005-16.844,34.589-12.785,37.624c4.426,2.726,13.275-14.757,15.951-20.729c2.809-5.311,10.039-23.154,10.619-23.458
		c-0.031-1.516,20.385-42.308,21.303-43.376c1.85-2.592,3.014-6.029,4.514-6.816c0.977-0.311,2.643-1.148,2.188,1.674
		c-0.131,2.45-0.275,3.54-0.627,4.185c-0.621,3.093-9.426,28.895-12.172,33.883c-0.092,0.883-20.344,40.465-22.199,41.438
		c0.025,0.05-7.67,14.309-3.586,14.239c9.213,0.997,21.434-28.217,27.189-35.569c4.262-7.098,9.395-14.542,13.996-21.977
		c6.574-8.531,17.93-25.018,19.916-22.16c0.76-0.398,0.436,4.154-0.482,4.967c0.045,2.152-19.148,34.417-23.945,43.3
		c-3.895,6.367-15.842,30.14-15.957,36.829c-0.387,10.912,15.496,8.462,15.293,8.073c4.877-1.605,9.025-3.013,14.506-5.823
		c6.979-3.352,44.023-22.204,54.576-24.9c14.127-2.887,11.479,3.74,6.5,6.912c-3.004,1.574-13.768,4.893-17.41,6.498
		c-35.719,15.73-42.24,21.104-48.662,26.139c-3.4,3.215-10.979,10.538-5.707,16.966c5.438,6.931,17.557,6.9,21.592,6.998
		c5.414,0.129,15.096-1.924,15.107-1.902c0,0,9.229-1.59,11.324-4.995C280.373,375.103,270.316,377.177,270.316,377.177z"/>
	<path fill-rule="evenodd" clip-rule="evenodd" d="M179.416,355.982c-0.275,0.406-0.52,0.623-0.805,1.022
		c-1.924,2.721-3.588,5.07-2.576,8.361c0.719,2.337,1.834,3.508,3.854,4.043c2.125,0.566,4.547,0.236,6.609-0.846
		c0.443-0.233,0.869-0.501,1.271-0.801c1.98-1.477,3.109-3.536,3.182-5.792c0.09-3.092-2.197-7.125-4.801-8.463
		c-1.258-0.649-2.059-0.424-3.346-0.038c-0.895,0.268-1.234,0.551-2.088,1.173C180.406,354.869,179.84,355.393,179.416,355.982z"/>
	<path fill-rule="evenodd" clip-rule="evenodd" d="M202.316,355.903c-3.795,0.458-7.783,4.088-7.889,9.37
		c-0.027,1.424,0.895,3.121,2.465,4.543c1.67,1.511,3.76,2.411,5.193,2.236c0.131-0.015,0.855-0.296,0.969-0.355
		c1.688-0.856,5.471-5.956,5.969-8.65c0.514-2.788-1.668-4.867-3.684-6.4C204.863,356.28,202.881,355.836,202.316,355.903z"/>
	<path fill-rule="evenodd" clip-rule="evenodd" d="M183.695,391.467c-4.412-2.763-10.75-10.29-7.771-12.244
		c1.145-0.75,2.84-0.536,3.787-0.141c0.047,0.022,0.117,0.046,0.186,0.067c0.732,0.229,3.035,1.176,4.104,1.633
		c1.701,0.726,3.305,1.35,4.57,1.531c15.027,2.171,21.041-7.352,22.059-8.358c1.707-1.692,8.367-3.523,9.639-0.302
		c0.969,2.455-7.482,8.867-12.232,12.748C199.441,393.424,188.775,394.653,183.695,391.467z"/>
</g>
</svg>
