<?xml version="1.0" encoding="UTF-8" standalone="no"?>
<!-- Created with DrawBerry (http://raphaelbost.free.fr/) -->
<svg 
 	 width = "595.000000" 
 	 height = "841.000000" 
xmlns:dc="http://purl.org/dc/elements/1.1/"
xmlns:cc="http://web.resource.org/cc/"
xmlns:rdf="http://www.w3.org/1999/02/22-rdf-syntax-ns#"
 xmlns:svg="http://www.w3.org/2000/svg"
 xmlns="http://www.w3.org/2000/svg" 
 xmlns:sodipodi="http://inkscape.sourceforge.net/DTD/sodipodi-0.dtd"
 xmlns:inkscape="http://www.inkscape.org/namespaces/inkscape"
 >
<g inkscape:label="" inkscape:groupmode="layer" id="">
<path  style="fill:#ffffff;fill-opacity:1.000000;stroke:#000000;stroke-width:1.000000px;stroke-opacity:1.000000;stroke-linecap:butt;stroke-linejoin:miter;" 
 d="M -1022.802979,-1268.362061 C -1022.802979,-1266.362061 -1022.802979,-1264.362061 -1022.802979,-1262.362061 C -1023.135986,-1262.362061 -1023.469971,-1262.362061 -1023.802979,-1262.362061 C -1023.802979,-1262.694946 -1023.802979,-1263.029053 -1023.802979,-1263.362061 C -1024.135986,-1263.362061 -1024.469971,-1263.362061 -1024.802979,-1263.362061 C -1024.802979,-1264.694946 -1024.802979,-1266.029053 -1024.802979,-1267.362061 C -1025.135986,-1267.362061 -1025.469971,-1267.362061 -1025.802979,-1267.362061 C -1025.802979,-1267.694946 -1025.802979,-1268.029053 -1025.802979,-1268.362061 C -1024.802979,-1268.362061 -1023.802979,-1268.362061 -1022.802979,-1268.362061  z"  />
<path  style="fill:#ffffff;fill-opacity:1.000000;stroke:#000000;stroke-width:1.000000px;stroke-opacity:1.000000;stroke-linecap:butt;stroke-linejoin:miter;" 
 d="M 334.627014,413.179993 C 334.377014,418.187988 334.438995,425.385010 334.816010,434.774994 C 334.816010,435.401001 335.032990,436.277008 335.471985,437.403015 C 335.910004,438.529999 336.127991,439.343994 336.127991,439.843994 C 336.127991,441.096985 335.063995,442.160004 332.937012,443.036011 C 332.497986,443.223999 331.934998,443.316986 331.247986,443.316986 C 329.182007,443.316986 326.989990,442.755005 324.675995,441.627991 C 321.920013,440.313995 320.545013,438.750000 320.545013,436.933990 C 320.545013,436.122009 320.839996,435.056000 321.436005,433.742004 C 322.032013,432.428009 322.609985,431.144989 323.174011,429.891998 C 323.174011,429.891998 323.174011,413.743988 323.174011,413.743988 C 323.174011,413.743988 310.592010,416.372986 310.592010,416.372986 C 310.592010,419.440002 310.622986,423.759003 310.686005,429.329010 C 310.747986,434.901001 310.779999,437.717987 310.779999,437.778992 C 310.779999,438.529999 310.983002,439.688995 311.390991,441.252991 C 311.796997,442.817993 312.000000,443.945007 312.000000,444.632996 C 312.000000,445.885010 311.578003,446.902008 310.731995,447.684998 C 309.888000,448.467010 308.746002,448.859009 307.306000,448.859009 C 305.803986,448.859009 304.269012,448.450989 302.704010,447.638000 C 301.140015,446.824005 300.091003,445.993988 299.558990,445.149994 C 299.026001,444.304993 298.760010,443.695007 298.760010,443.319000 C 298.760010,443.195007 299.010010,442.537994 299.511993,441.346985 C 299.511993,438.657013 299.479004,434.274994 299.417999,428.203003 C 299.354004,422.131989 299.324005,418.251007 299.324005,416.559998 C 299.260010,416.372009 298.510010,415.027008 297.070007,412.523010 C 296.192993,411.084015 295.881012,409.739014 296.131012,408.485992 C 296.256012,407.798004 296.631012,407.234009 297.257996,406.795990 C 297.882996,406.359009 298.510010,405.920013 299.136993,405.481995 C 298.947998,390.585999 299.010010,380.506989 299.325012,375.250000 C 298.760986,374.123993 298.479004,373.217010 298.479004,372.527008 C 298.479004,371.151001 299.447998,369.992004 301.389008,369.053009 C 302.200989,368.678009 303.362000,368.489990 304.864014,368.489990 C 309.747009,368.489990 312.717987,369.803986 313.783997,372.433014 C 313.971985,372.934998 314.065002,373.404999 314.065002,373.841003 C 314.065002,374.718994 313.515991,376.016998 312.421997,377.737000 C 311.324005,379.459991 310.777008,380.882996 310.777008,382.009003 C 310.402008,392.023987 310.338989,399.471985 310.588989,404.354004 C 316.723999,403.290985 320.790009,402.476990 322.794006,401.914001 C 322.231995,394.278015 322.294006,385.328003 322.983002,375.061005 C 322.419006,373.497986 322.136993,372.213013 322.136993,371.210999 C 322.136993,369.333008 323.295013,367.800995 325.612000,366.609985 C 326.112000,366.360992 326.830994,366.234985 327.769989,366.234985 C 329.960999,366.234985 332.088013,366.766998 334.154999,367.830994 C 336.533997,369.084015 337.752991,370.681000 337.816986,372.618988 C 337.877991,373.497009 337.330994,374.591003 336.174011,375.904999 C 335.014008,377.218994 334.436005,378.378998 334.436005,379.380005 C 334.311005,388.393005 334.373993,395.967010 334.623993,402.101013 C 335.626007,402.915009 336.644012,404.105011 337.677002,405.667999 C 338.708008,407.233002 339.226013,408.518005 339.226013,409.518005 C 339.226013,410.519989 338.692993,411.270996 337.630005,411.772003 C 336.566010,412.272003 335.566010,412.742004 334.627014,413.179993  z"  />
<path  style="fill:#ffffff;fill-opacity:1.000000;stroke:#000000;stroke-width:1.000000px;stroke-opacity:1.000000;stroke-linecap:butt;stroke-linejoin:miter;" 
 d="M 385.890991,440.407013 C 384.951996,443.473999 382.635010,445.007996 378.944000,445.007996 C 377.690002,445.007996 376.690002,444.787994 375.937988,444.351013 C 374.936005,443.662994 374.248993,442.286011 373.873993,440.220001 C 373.122009,436.652008 372.372009,433.867004 371.619995,431.864014 C 371.432007,435.307007 369.556000,438.798004 365.987000,442.333008 C 362.417999,445.868011 358.819000,447.638000 355.190002,447.638000 C 350.619995,447.638000 347.458008,444.601013 345.708008,438.531006 C 345.080994,436.278015 344.769012,434.151001 344.769012,432.147003 C 344.769012,426.325989 347.742004,421.348999 353.688995,417.217987 C 358.570007,414.339996 363.484009,411.489990 368.428986,408.674011 C 368.677002,407.610992 368.803986,406.576996 368.803986,405.575012 C 368.803986,403.635986 368.270996,402.493011 367.208008,402.148010 C 366.141998,401.804993 365.234985,401.631012 364.484985,401.631012 C 363.170990,401.631012 362.089996,402.053986 361.244995,402.898987 C 360.401001,403.744995 359.601990,404.542999 358.850006,405.294006 C 358.100006,405.795990 357.128998,406.953003 355.940002,408.768005 C 355.002014,410.208008 353.968994,410.990997 352.842010,411.115997 C 351.213013,411.303986 349.743988,410.739990 348.429993,409.425995 C 347.115997,408.112000 346.457001,406.578003 346.457001,404.825012 C 346.457001,403.825012 346.707001,402.916992 347.209015,402.101990 C 348.648010,399.723999 350.807007,397.658997 353.687988,395.906006 C 358.066986,393.277008 363.545013,391.963013 370.118011,391.963013 C 374.311005,391.963013 377.190002,393.967010 378.756989,397.971985 C 379.756989,400.662994 380.506989,405.703003 381.009003,413.088013 C 381.572998,422.039001 382.260986,428.579010 383.075012,432.709991 C 383.200012,433.523987 383.730988,434.558014 384.670990,435.808990 C 385.609985,437.062012 386.079010,438.157013 386.079010,439.095001 C 366.438995,428.140015 386.015991,439.970001 385.890991,440.407013  zM 369.554993,417.311005 C 367.675995,418.312988 365.812988,419.346008 363.967010,420.410004 C 362.121002,421.473999 360.414001,422.884003 358.850006,424.635010 C 356.597992,427.201996 355.471008,429.393005 355.471008,431.207001 C 355.471008,432.709015 356.032990,434.273987 357.160004,435.901001 C 357.785004,436.778992 358.473999,437.214996 359.226013,437.214996 C 360.852997,437.214996 362.621002,435.401001 364.531006,431.769989 C 366.438995,428.140015 368.113007,423.319000 369.554993,417.311005  z"  />
<path  style="fill:#ffffff;fill-opacity:1.000000;stroke:#000000;stroke-width:1.000000px;stroke-opacity:1.000000;stroke-linecap:butt;stroke-linejoin:miter;" 
 d="M 435.932007,438.342010 C 435.804993,439.718994 434.898987,440.893005 433.209015,441.863007 C 431.519989,442.834991 429.640991,443.317993 427.575989,443.317993 C 424.507996,443.317993 422.411987,442.347992 421.285004,440.407990 C 421.785004,421.130005 421.221008,411.365997 419.593994,411.114990 C 418.029999,410.864990 414.210999,419.502991 408.140991,437.028015 C 408.140991,438.906006 408.140991,440.783997 408.140991,442.661011 C 408.079010,444.915009 407.467010,446.510986 406.308990,447.450012 C 405.151001,448.388000 403.915985,448.858002 402.601990,448.858002 C 400.347992,448.858002 397.937988,447.636993 395.372009,445.196014 C 394.622009,444.570007 394.213989,439.813995 394.151001,430.924988 C 394.213013,436.369995 394.244995,426.263000 394.244995,400.598999 C 394.244995,400.036011 394.183014,399.269989 394.057007,398.298004 C 393.932007,397.328003 393.868988,396.623993 393.868988,396.186005 C 393.868988,394.997986 394.181000,393.964996 394.808014,393.087006 C 395.558014,391.960999 396.747009,391.398010 398.373993,391.398010 C 400.065002,391.398010 401.833008,391.915009 403.678986,392.946991 C 405.524994,393.980011 406.638000,394.966003 407.013000,395.904999 C 407.263000,396.531006 407.388000,397.157990 407.388000,397.782990 C 407.388000,398.408997 407.138000,399.285004 406.638000,400.411987 C 406.135986,401.537994 405.885986,402.476990 405.885986,403.227997 C 405.885986,403.227997 405.885986,416.183990 405.885986,416.183990 C 409.829010,407.796997 412.802002,402.257996 414.806000,399.566010 C 418.373993,394.934998 422.411011,392.774994 426.916992,393.087006 C 429.608002,393.274994 431.519012,395.778992 432.644012,400.598999 C 433.520996,404.230011 433.989990,409.612000 434.052002,416.747009 C 434.052002,422.381012 434.052002,428.014008 434.052002,433.647003 C 434.177002,434.084991 434.615997,434.868011 435.365997,435.993988 C 435.804993,436.621002 435.992004,437.402008 435.932007,438.342010  z"  />
<path  style="fill:#ffffff;fill-opacity:1.000000;stroke:#000000;stroke-width:1.000000px;stroke-opacity:1.000000;stroke-linecap:butt;stroke-linejoin:miter;" 
 d="M 477.520996,443.786987 C 476.769012,445.476990 474.453003,446.321991 470.574005,446.321991 C 468.132996,446.321991 466.503998,445.820007 465.691010,444.820007 C 465.377014,444.506012 465.221985,444.069000 465.221985,443.506012 C 465.221985,443.067993 465.376007,442.378998 465.691010,441.441010 C 466.002991,440.502014 466.191010,439.782990 466.252991,439.281006 C 463.373993,443.350006 459.993011,445.385010 456.114014,445.385010 C 450.916992,445.385010 447.131989,442.444000 444.752991,436.558990 C 442.937012,432.052002 442.029999,426.200989 442.029999,419.002014 C 442.029999,412.368011 443.437988,406.325989 446.255005,400.881012 C 449.384003,394.936005 453.234009,391.962006 457.803986,391.962006 C 460.369995,391.962006 462.998993,394.027008 465.691010,398.157990 C 465.691010,398.157990 465.691010,386.046997 465.691010,386.046997 C 465.691010,385.045990 465.282990,383.763000 464.470001,382.196991 C 463.656006,380.634003 463.248993,379.442993 463.248993,378.630005 C 463.248993,378.005005 463.404999,377.377991 463.717987,376.752014 C 465.032013,373.934998 467.598999,372.526001 471.416992,372.526001 C 474.545990,372.526001 476.487000,373.653015 477.239014,375.906006 C 477.487000,376.657990 477.614014,377.377991 477.614014,378.066010 C 477.614014,378.755005 477.411011,379.678009 477.002991,380.835999 C 476.596985,381.994995 476.394012,382.980988 476.394012,383.792999 C 476.394012,383.792999 476.394012,437.309998 476.394012,437.309998 C 476.394012,437.998993 476.644012,438.829010 477.145996,439.798004 C 477.645996,440.769989 477.895996,441.567993 477.895996,442.192993 C 464.002014,426.605011 477.770996,443.223999 477.520996,443.786987  zM 464.563995,419.001007 C 464.563995,416.122009 463.967987,412.742004 462.781006,408.859985 C 461.467010,404.729004 460.183014,402.664001 458.931000,402.664001 C 457.489990,402.664001 456.333008,404.574005 455.455994,408.391998 C 454.766998,411.522003 454.423004,415.058014 454.423004,419.001007 C 454.423004,419.690002 454.391998,420.816010 454.329010,422.381012 C 454.329010,423.882996 454.329010,425.041992 454.329010,425.855011 C 454.329010,432.928986 455.862000,436.463989 458.931000,436.463989 C 460.369995,436.463989 461.684998,434.431000 462.873993,430.360992 C 464.002014,426.605011 464.563995,422.819000 464.563995,419.001007  z"  />
<path  style="fill:#ffffff;fill-opacity:1.000000;stroke:#000000;stroke-width:1.000000px;stroke-opacity:1.000000;stroke-linecap:butt;stroke-linejoin:miter;" 
 d="M 528.314026,399.847992 C 528.125977,401.225006 527.375000,402.476990 526.059998,403.602997 C 524.119019,405.356995 522.992004,406.420013 522.681030,406.795013 C 522.681030,406.795013 502.024994,434.773987 502.024994,434.773987 C 502.024994,434.773987 516.109009,432.519989 516.109009,432.519989 C 516.796997,432.394989 517.736023,432.066986 518.924988,431.535004 C 520.112976,431.003998 521.083008,430.735992 521.835022,430.735992 C 523.586975,430.735992 525.088989,431.535004 526.341003,433.131012 C 527.593018,434.726990 528.219971,436.433990 528.219971,438.247986 C 528.219971,439.812988 527.796021,441.049988 526.952026,441.955994 C 526.106018,442.864014 525.026001,443.316986 523.711975,443.316986 C 523.400024,443.316986 522.491028,443.222992 520.989014,443.036011 C 519.799988,442.911011 518.797974,442.911011 517.984985,443.036011 C 517.984985,443.036011 500.522003,445.759003 500.522003,445.759003 C 499.769989,445.884003 498.643005,446.321991 497.140991,447.072998 C 495.889008,447.760986 494.761993,448.074005 493.761993,448.011993 C 491.446014,447.885010 489.410004,447.087006 487.657990,445.617004 C 485.903992,444.147003 485.028992,442.410004 485.028992,440.406006 C 485.028992,440.029999 485.059998,439.654999 485.122986,439.278992 C 485.372986,437.777008 486.000000,436.588989 487.002014,435.712006 C 488.563995,434.335999 489.441010,433.522003 489.631012,433.270996 C 489.631012,433.270996 510.660004,404.165985 510.660004,404.165985 C 510.660004,404.165985 500.520996,405.480011 500.520996,405.480011 C 500.019012,405.542999 499.346985,405.730988 498.501007,406.042999 C 497.657013,406.356995 496.983002,406.513000 496.483002,406.513000 C 495.919006,406.513000 495.322998,406.358002 494.697998,406.042999 C 491.131989,404.415985 489.346008,402.256989 489.346008,399.563995 C 489.346008,398.062012 489.940002,396.592010 491.131012,395.152008 C 491.881012,394.213013 492.945007,393.743011 494.321991,393.743011 C 494.760010,393.743011 495.730011,393.869995 497.231995,394.118988 C 498.484009,394.244995 499.516998,394.276001 500.332001,394.213013 C 500.332001,394.213013 514.978027,392.523987 514.978027,392.523987 C 515.728027,392.462006 516.760986,392.195007 518.075989,391.725006 C 519.390015,391.256012 520.424011,391.020996 521.174011,391.020996 C 523.052979,391.020996 524.773987,392.023010 526.338013,394.026001 C 527.906006,396.029999 528.562012,397.970001 528.314026,399.847992  z"  />
<path  style="fill:#ffffff;fill-opacity:1.000000;stroke:#000000;stroke-width:1.000000px;stroke-opacity:1.000000;stroke-linecap:butt;stroke-linejoin:miter;" 
 d="M 565.679993,434.492004 C 565.179993,436.872009 563.489014,439.407013 560.612000,442.096985 C 560.172974,442.786011 558.452026,443.692993 555.447998,444.820007 C 552.005005,446.134003 549.030029,446.697998 546.528015,446.509003 C 541.833008,446.196014 538.138977,443.505005 535.450012,438.434998 C 533.008972,433.740997 531.788025,427.983002 531.788025,421.160004 C 531.788025,413.774994 533.163025,407.296997 535.919006,401.725006 C 538.984985,395.591003 543.085022,392.148010 548.218018,391.397003 C 549.218018,391.272003 550.190979,391.209015 551.127991,391.209015 C 558.577026,391.209015 562.677002,395.778015 563.429016,404.915985 C 563.804016,409.109985 562.145996,413.681000 558.452026,418.623993 C 554.445984,424.069000 549.312988,427.889008 543.054016,430.078003 C 543.742981,432.583008 544.275024,434.209991 544.651978,434.960999 C 545.526978,436.526001 546.716003,437.308014 548.218018,437.308014 C 549.656982,437.308014 551.190979,436.744995 552.820007,435.618988 C 554.195007,434.679993 555.133972,433.773010 555.635986,432.895996 C 555.885986,432.770996 556.135986,432.066986 556.385986,430.782990 C 556.635986,429.502014 557.294006,428.576996 558.359009,428.013000 C 558.734009,427.825012 559.171021,427.731995 559.672974,427.731995 C 561.174988,427.731995 562.630005,428.467987 564.038025,429.937988 C 554.226990,402.664001 565.992004,432.928986 565.679993,434.492004  zM 550.939026,401.442993 C 548.434998,401.442993 546.400024,403.226990 544.836975,406.795013 C 542.770996,411.553009 541.924988,416.247009 542.302002,420.877991 C 545.242981,419.940002 547.966003,417.748993 550.469971,414.307007 C 552.971985,410.864990 554.226013,407.796997 554.226013,405.105988 C 554.226990,402.664001 553.130981,401.442993 550.939026,401.442993  z"  />
<path  style="fill:#ffffff;fill-opacity:1.000000;stroke:#000000;stroke-width:1.000000px;stroke-opacity:1.000000;stroke-linecap:butt;stroke-linejoin:miter;" 
 d="M 588.400024,396.842987 C 588.400024,397.720001 587.914001,399.082001 586.942993,400.927002 C 585.971985,402.774994 585.487976,404.291992 585.487976,405.480988 C 585.487976,405.480988 585.487976,433.084991 585.487976,433.084991 C 585.487976,434.338013 585.831970,436.105988 586.520996,438.390015 C 587.208984,440.674988 587.554016,442.255005 587.554016,443.131012 C 587.554016,444.382996 587.052002,445.321014 586.052002,445.946991 C 584.486023,446.947998 582.796021,447.450012 580.981995,447.450012 C 578.603027,447.450012 576.911987,446.635986 575.911987,445.009003 C 574.598022,443.006012 573.940979,437.028992 573.940979,427.075989 C 573.940979,424.697998 573.987976,420.989014 574.081970,415.950012 C 574.176025,410.911987 574.223022,407.234009 574.223022,404.917999 C 574.223022,404.042999 574.129028,402.898987 573.942017,401.490997 C 573.752991,400.083008 573.658997,399.066010 573.658997,398.440002 C 573.658997,396.373993 574.411011,394.589996 575.913025,393.087006 C 576.538025,392.462006 577.695984,392.148987 579.388000,392.148987 C 581.077026,392.148987 582.767029,392.415985 584.458008,392.946991 C 586.146973,393.480011 587.228027,394.089996 587.695984,394.778015 C 584.080017,372.243988 588.400024,396.154999 588.400024,396.842987  zM 587.179993,373.933990 C 587.367981,374.122009 587.460999,374.436005 587.460999,374.872986 C 587.460999,375.436005 587.273010,376.407013 586.896973,377.782990 C 586.458984,379.472992 586.177979,380.632996 586.052979,381.257996 C 585.926025,381.884003 585.989014,383.261993 586.241028,385.389008 C 586.241028,386.703003 585.848022,387.565002 585.067017,387.971008 C 584.283997,388.377991 583.296997,388.580994 582.109985,388.580994 C 580.419006,388.580994 578.697998,388.237000 576.945984,387.548004 C 574.817017,386.671997 573.752991,385.515015 573.752991,384.074005 C 573.752991,383.635986 573.942017,383.026001 574.317017,382.243011 C 574.692017,381.460999 574.911011,380.820007 574.973022,380.317993 C 575.098022,379.817993 575.098022,378.566010 574.973022,376.562012 C 574.848022,374.998993 575.161987,373.933014 575.911987,373.371002 C 576.911987,372.618988 578.697021,372.243988 581.263977,372.243988 C 584.080017,372.243988 586.052979,372.808014 587.179993,373.933990  z"  />
<path  style="fill:#ffffff;fill-opacity:1.000000;stroke:#000000;stroke-width:1.000000px;stroke-opacity:1.000000;stroke-linecap:butt;stroke-linejoin:miter;" 
 d="M 628.112976,401.726013 C 627.611023,401.726013 626.830017,401.523010 625.765015,401.115997 C 624.700012,400.709015 623.888000,400.506012 623.325989,400.506012 C 622.887024,400.506012 622.447021,400.600006 622.012024,400.786987 C 622.012024,400.786987 618.536987,402.571014 618.536987,402.571014 C 618.536987,402.571014 618.536987,434.679993 618.536987,434.679993 C 618.536987,435.869995 619.177979,437.403015 620.460999,439.281006 C 621.744019,441.158997 622.260010,442.661011 622.012024,443.787994 C 621.697998,445.164001 620.773987,446.260010 619.241028,447.074005 C 617.708008,447.885986 616.065002,448.295013 614.312988,448.295013 C 610.994995,448.295013 608.708984,446.822998 607.458984,443.881989 C 607.081970,443.006012 606.862976,440.221008 606.801025,435.527008 C 606.739014,432.397003 606.770020,427.515015 606.895020,420.880005 C 607.020020,413.368988 607.083008,408.613007 607.083008,406.609009 C 606.708008,406.734985 606.080994,407.157990 605.205994,407.877014 C 604.328979,408.596985 603.452026,408.955994 602.577026,408.955994 C 601.888000,408.955994 601.010986,408.768005 599.947998,408.394012 C 595.567017,406.890991 593.375977,405.359009 593.375977,403.792999 C 593.375977,403.416992 593.469971,403.010986 593.656982,402.571991 C 594.096008,401.571014 594.911011,401.007996 596.098022,400.881989 C 597.911987,400.632996 599.007996,400.412994 599.382996,400.225006 C 600.822021,399.661987 603.450989,398.316986 607.270020,396.187988 C 607.270020,396.187988 607.270020,388.019989 607.270020,388.019989 C 607.270020,387.394989 607.098022,386.565002 606.754028,385.532013 C 606.409973,384.498993 606.237976,383.733002 606.237976,383.231995 C 606.237976,382.669006 606.392029,382.136993 606.706970,381.635010 C 608.333984,379.131989 610.523010,377.878998 613.278992,377.878998 C 616.469971,377.878998 618.723999,379.131989 620.039001,381.635010 C 620.539001,382.636993 620.791016,383.450989 620.791016,384.075989 C 620.791016,384.826996 620.414001,385.609985 619.664001,386.423004 C 618.911987,387.237000 618.536987,387.988007 618.536987,388.677002 C 618.536987,388.677002 618.536987,393.278015 618.536987,393.278015 C 619.664001,392.777008 620.914001,391.932007 622.293030,390.743011 C 623.354980,389.867004 624.263977,389.428986 625.015991,389.428986 C 625.328003,389.428986 625.671997,389.490997 626.049011,389.617004 C 629.992004,390.682007 631.963013,393.059998 631.963013,396.752991 C 631.963013,397.941986 631.601990,399.069000 630.882996,400.132996 C 630.161987,401.194000 629.239990,401.726013 628.112976,401.726013  z"  />
<path  style="fill:#000000;fill-opacity:1.000000;stroke:#000000;stroke-width:1.000000px;stroke-opacity:1.000000;stroke-linecap:butt;stroke-linejoin:miter;" 
 d="M 644.729980,433.740997 C 644.854980,434.492004 644.791992,435.368988 644.541992,436.369995 C 644.039978,437.934998 643.758972,438.811005 643.695984,438.998993 C 643.633972,440.001007 643.554993,441.049988 643.461975,442.144989 C 643.367981,443.240997 643.023987,444.101990 642.429016,444.726990 C 641.833984,445.351990 640.661011,445.665009 638.908997,445.665009 C 637.155029,445.665009 635.622009,445.320007 634.307007,444.631989 C 632.742981,443.881012 631.927979,442.848999 631.866028,441.533997 C 631.866028,440.971008 632.038025,440.282013 632.383972,439.468994 C 632.728027,438.656006 632.945984,438.029999 633.039978,437.591003 C 633.133972,437.153015 633.148987,435.963989 633.086975,434.023010 C 633.086975,432.584991 633.445984,431.520996 634.166992,430.832001 C 634.885986,430.144012 636.028015,429.799011 637.594971,429.799011 C 639.221985,429.799011 640.755005,430.160004 642.195007,430.878998 C 643.635010,431.597992 644.479980,432.553009 644.729980,433.740997  z"  />
<path  style="fill:#000000;fill-opacity:1.000000;stroke:#000000;stroke-width:1.000000px;stroke-opacity:1.000000;stroke-linecap:butt;stroke-linejoin:miter;" 
 d="M 684.914001,428.765015 C 684.851990,430.143005 684.255981,431.550995 683.130981,432.990997 C 681.377014,435.056000 680.250000,436.622009 679.750000,437.684998 C 675.807007,443.694000 671.736023,446.699005 667.544983,446.699005 C 662.599976,446.699005 658.750000,444.196014 655.995972,439.187012 C 653.554993,434.618988 652.333984,428.859985 652.333984,421.911987 C 652.333984,413.963989 653.835999,407.046997 656.841980,401.162994 C 660.158020,394.653015 664.445984,391.398010 669.703003,391.398010 C 673.835999,391.398010 677.182983,393.683014 679.750000,398.252014 C 681.877014,402.134003 682.940979,406.359009 682.940979,410.927002 C 682.940979,412.179993 682.846985,413.274994 682.659973,414.213013 C 682.221985,416.342010 680.437012,417.404999 677.307983,417.404999 C 674.867004,417.404999 672.989990,416.717010 671.674988,415.339996 C 671.047974,414.652008 670.736023,413.056000 670.736023,410.552002 C 670.736023,409.927002 670.767029,409.019012 670.830017,407.829010 C 670.830017,406.576996 670.830017,405.669006 670.830017,405.105988 C 670.830017,402.289001 670.328003,400.880005 669.328003,400.880005 C 668.263977,400.880005 667.137024,403.963989 665.948975,410.127991 C 664.757996,416.294006 664.164001,422.067993 664.164001,427.450012 C 664.164001,433.709991 665.103027,436.839996 666.979980,436.839996 C 669.421021,436.839996 671.236023,434.868011 672.427002,430.924988 C 672.927002,430.362000 673.208008,429.234985 673.270996,427.545013 C 673.270996,426.041992 673.645996,425.057007 674.398010,424.587006 C 675.150024,424.117004 676.244019,423.882996 677.682983,423.882996 C 679.562012,423.882996 681.189026,424.290985 682.565979,425.104004 C 684.192993,426.041992 684.976990,427.263000 684.914001,428.765015  z"  />
<path  style="fill:#000000;fill-opacity:1.000000;stroke:#000000;stroke-width:1.000000px;stroke-opacity:1.000000;stroke-linecap:butt;stroke-linejoin:miter;" 
 d="M 729.885010,436.463989 C 730.262024,438.028992 730.448975,439.031006 730.448975,439.468994 C 730.448975,440.782990 729.681030,441.863007 728.148010,442.708008 C 726.612976,443.553009 724.969971,443.975006 723.218018,443.975006 C 720.526978,443.975006 718.806030,442.975006 718.054016,440.971008 C 717.742004,440.158997 717.585022,439.468994 717.585022,438.906006 C 717.585022,438.093994 717.943970,437.216003 718.664978,436.277008 C 719.383972,435.338013 719.744995,434.463013 719.744995,433.648010 C 720.494995,430.394012 720.872009,425.700012 720.872009,419.563995 C 720.872009,408.924011 720.119995,403.479004 718.617981,403.227997 C 717.491028,403.040009 715.674988,404.824005 713.172974,408.579987 C 710.544006,412.523010 708.353027,416.936005 706.601013,421.817993 C 704.534973,427.578003 703.658020,432.647003 703.971985,437.028015 C 703.783997,437.403015 703.690979,437.778992 703.690979,438.154999 C 703.690979,438.717010 703.939026,439.515991 704.440979,440.549011 C 704.940979,441.582001 705.192993,442.411987 705.192993,443.036987 C 705.192993,443.662994 704.971985,444.257996 704.534973,444.821014 C 702.846008,447.260986 701.156006,448.481995 699.465027,448.481995 C 697.713013,448.481995 696.021973,447.105011 694.396973,444.351013 C 693.458008,442.723999 692.987000,433.365997 692.987000,416.278992 C 692.987000,410.019989 693.143005,395.779999 693.458008,373.558990 C 693.458008,373.183014 693.424988,372.605011 693.364014,371.821991 C 693.299988,371.040985 693.270020,370.429993 693.270020,369.990997 C 693.330994,369.367004 693.518005,368.803009 693.831970,368.302002 C 694.520020,366.988007 695.992004,366.329987 698.244019,366.329987 C 700.247986,366.329987 702.078003,366.862000 703.737976,367.925995 C 705.393982,368.990997 706.036987,370.242004 705.661987,371.682007 C 705.599976,372.058014 705.301025,372.496002 704.768982,372.996002 C 704.237976,373.497986 703.971985,373.997986 703.971985,374.497986 C 703.971985,374.497986 703.971985,404.730011 703.971985,404.730011 C 707.538025,396.717987 712.796021,392.462006 719.744995,391.960999 C 723.500977,391.710999 726.505005,394.528015 728.758972,400.411011 C 730.822998,405.795013 731.856995,412.397003 731.856995,420.221008 C 731.856995,426.230011 731.198975,431.644989 729.885010,436.463989  z"  />
</g>
<g inkscape:label="" inkscape:groupmode="layer" id="">
<path  style="fill:#ffffff;fill-opacity:1.000000;stroke:#000000;stroke-width:1.000000px;stroke-opacity:1.000000;stroke-linecap:butt;stroke-linejoin:miter;" 
 d="M 270.316010,377.177002 C 255.776993,380.803986 256.532990,380.235992 254.791000,380.644989 C 244.102997,382.269989 243.037003,378.006989 242.625000,377.005005 C 236.207001,364.286987 289.696991,343.665985 299.101990,340.539001 C 304.451996,338.977997 307.381012,337.835999 309.730988,336.346008 C 317.190002,332.571991 315.393005,324.548004 310.640991,318.221985 C 299.243011,306.898010 232.990997,343.420013 225.863998,346.612000 C 223.007004,348.091003 219.884003,347.571991 221.158997,343.227997 C 221.960007,339.049011 231.057007,318.604004 231.727005,317.195007 C 231.227005,316.242004 251.862000,277.044006 255.503998,270.671997 C 257.996002,266.316010 258.161987,255.776001 253.276993,253.526993 C 250.470001,251.977005 248.863007,251.630997 244.789001,254.391998 C 242.328003,256.058014 225.242004,278.988007 224.100006,279.731995 C 225.057007,275.447998 227.427994,270.998993 228.378998,268.855988 C 230.356003,264.402008 239.589996,242.056000 230.468994,239.001007 C 226.240005,237.731003 223.369003,239.789993 221.660004,240.688004 C 215.334000,244.763000 204.494003,268.838989 202.156006,270.760010 C 204.320007,259.251007 206.044998,255.574997 200.138000,253.623993 C 191.425003,250.746002 188.822006,254.332001 186.233994,260.252991 C 184.218002,264.993988 181.779007,269.377014 179.250000,275.138000 C 177.063995,278.558014 169.250000,297.325012 168.664001,298.877991 C 167.421997,302.170990 154.033005,334.871002 152.815994,339.567993 C 151.703003,344.244995 151.065994,355.899994 151.802002,359.789001 C 152.220001,361.454987 151.983994,362.613007 152.785995,364.148010 C 152.158997,364.476013 154.729004,370.433990 154.983002,370.997009 C 158.003998,377.683014 167.020004,395.505005 167.326996,396.194000 C 167.024002,396.351990 164.169006,393.311005 163.011002,392.928009 C 158.154007,390.593994 151.556000,390.473999 148.093002,390.838989 C 140.893997,391.725006 132.401993,395.401001 127.927002,403.533997 C 126.398003,406.316010 126.468002,408.502991 128.016998,411.455994 C 131.354996,416.032990 134.744003,417.423004 135.098999,417.820007 C 150.347000,426.122009 187.276993,439.997009 188.483994,440.537994 C 190.414001,441.322998 194.072006,443.653015 196.097000,444.513000 C 201.065994,446.238007 212.132004,448.165009 218.516998,448.195007 C 223.628006,448.480988 230.854996,447.576996 232.136002,446.984009 C 233.110992,446.628998 239.429001,444.518005 245.751007,444.621002 C 247.755005,444.641998 258.118011,446.127991 265.368011,445.569000 C 274.873993,445.302002 271.583008,435.816986 265.126007,436.248993 C 260.119995,436.591003 256.537994,436.313995 254.925003,436.079010 C 252.664993,436.208008 250.783997,435.479004 247.770996,435.769989 C 241.242004,436.398010 248.306000,430.858002 249.919006,428.615997 C 251.026001,426.272003 249.432999,421.843994 244.830994,423.841003 C 242.820999,423.990997 226.028000,439.847992 219.046005,438.973999 C 213.080994,438.557007 202.410995,435.627991 198.001007,433.268005 C 193.404999,431.640991 175.014999,426.660004 172.388000,424.433014 C 169.636002,422.410004 130.317993,409.869995 145.766998,400.501007 C 147.035004,400.179993 150.705002,398.147003 157.332993,402.251007 C 161.550003,404.330994 164.408997,406.217987 167.572998,407.713013 C 171.776001,408.933990 175.632004,410.880005 181.733002,411.562012 C 184.539993,411.953003 194.903000,412.885986 199.873993,413.910004 C 203.427002,414.971008 204.753006,415.428009 206.673004,415.709015 C 216.514999,416.429993 196.770996,403.467987 187.962006,403.962006 C 185.753006,404.114014 183.421005,403.381989 182.085007,403.412994 C 179.453995,403.475006 179.850998,402.460999 179.069000,400.601990 C 178.253006,398.654999 172.257004,385.152008 172.386993,385.080994 C 170.375000,381.243988 157.973007,360.388000 160.408005,344.809998 C 161.524994,341.382996 162.813995,337.402008 167.901993,325.466003 C 170.401993,319.260010 193.179001,262.744995 193.102997,262.604004 C 202.328003,258.001007 188.264999,296.153015 185.281006,303.660004 C 183.598999,307.665009 168.436996,338.248993 172.496002,341.283997 C 176.921997,344.010010 185.770996,326.527008 188.447006,320.554993 C 191.255997,315.243988 198.485992,297.401001 199.065994,297.096985 C 199.035004,295.580994 219.451004,254.789001 220.369003,253.720993 C 222.218994,251.128998 223.382996,247.692001 224.882996,246.904999 C 225.860001,246.593994 227.526001,245.757004 227.070999,248.578995 C 226.940002,251.029007 226.796005,252.119003 226.444000,252.764008 C 225.822998,255.856995 217.018005,281.658997 214.272003,286.647003 C 214.179993,287.529999 193.927994,327.112000 192.072998,328.084991 C 192.098007,328.135010 184.403000,342.394012 188.487000,342.324005 C 197.699997,343.321014 209.921005,314.106995 215.675995,306.755005 C 219.938004,299.657013 225.070999,292.213013 229.671997,284.778015 C 236.246002,276.247009 247.602005,259.760010 249.587997,262.618011 C 250.348007,262.220001 250.024002,266.772003 249.106003,267.584991 C 249.151001,269.737000 229.957993,302.002014 225.160995,310.885010 C 221.266006,317.252014 209.319000,341.024994 209.203995,347.713989 C 208.817001,358.626007 224.699997,356.175995 224.496994,355.786987 C 229.373993,354.182007 233.522003,352.773987 239.003006,349.963989 C 245.981995,346.612000 283.026001,327.760010 293.579010,325.063995 C 307.705994,322.177002 305.058014,328.803986 300.079010,331.976013 C 297.075012,333.549988 286.311005,336.868988 282.669006,338.473999 C 246.949997,354.204010 240.429001,359.578003 234.007004,364.613007 C 230.606995,367.828003 223.028000,375.151001 228.300003,381.579010 C 233.738007,388.510010 245.856995,388.479004 249.891998,388.576996 C 255.306000,388.705994 264.988007,386.653015 264.998993,386.674988 C 264.998993,386.674988 274.227997,385.084991 276.322998,381.679993 C 280.372986,375.102997 270.316010,377.177002 270.316010,377.177002  z"  />
<path  style="fill:#ffffff;fill-opacity:1.000000;stroke:#000000;stroke-width:1.000000px;stroke-opacity:1.000000;stroke-linecap:butt;stroke-linejoin:miter;" 
 d="M 179.416000,355.981995 C 179.141006,356.388000 178.895996,356.605011 178.610992,357.003998 C 176.686996,359.725006 175.022995,362.074005 176.035004,365.364990 C 176.753998,367.701996 177.869003,368.872986 179.889008,369.407990 C 182.014008,369.973999 184.436005,369.644012 186.498001,368.562012 C 186.940994,368.329010 187.367004,368.061005 187.768997,367.760986 C 189.748993,366.283997 190.878006,364.225006 190.951004,361.968994 C 191.041000,358.877014 188.753998,354.843994 186.149994,353.506012 C 184.891998,352.856995 184.091003,353.082001 182.804001,353.467987 C 181.908997,353.735992 181.570007,354.019012 180.716003,354.640991 C 180.406006,354.868988 179.839996,355.393005 179.416000,355.981995  z"  />
<path  style="fill:#ffffff;fill-opacity:1.000000;stroke:#000000;stroke-width:1.000000px;stroke-opacity:1.000000;stroke-linecap:butt;stroke-linejoin:miter;" 
 d="M 202.315994,355.903015 C 198.520996,356.360992 194.533005,359.990997 194.427002,365.273010 C 194.399994,366.696991 195.322006,368.394012 196.891998,369.816010 C 198.561996,371.326996 200.651993,372.226990 202.085007,372.052002 C 202.216003,372.036987 202.940002,371.756012 203.054001,371.696991 C 204.742004,370.841003 208.524994,365.740997 209.022995,363.046997 C 209.537003,360.259003 207.354996,358.179993 205.339005,356.647003 C 204.863007,356.279999 202.880997,355.835999 202.315994,355.903015  z"  />
<path  style="fill:#ffffff;fill-opacity:1.000000;stroke:#000000;stroke-width:1.000000px;stroke-opacity:1.000000;stroke-linecap:butt;stroke-linejoin:miter;" 
 d="M 183.695007,391.467010 C 179.283005,388.704010 172.945007,381.177002 175.923996,379.222992 C 177.069000,378.472992 178.764008,378.687012 179.710999,379.082001 C 179.757996,379.104004 179.828003,379.127991 179.897003,379.148987 C 180.628998,379.377991 182.932007,380.325012 184.001007,380.782013 C 185.701996,381.507996 187.306000,382.131989 188.570999,382.312988 C 203.598007,384.484009 209.612000,374.960999 210.630005,373.954987 C 212.337006,372.263000 218.996994,370.432007 220.268997,373.653015 C 221.238007,376.108002 212.787003,382.519989 208.037003,386.401001 C 199.440994,393.424011 188.774994,394.653015 183.695007,391.467010  z"  />
</g>
</svg>
